<?xml version="1.0" standalone="no"?>
<!DOCTYPE svg PUBLIC "-//W3C//DTD SVG 20010904//EN"
 "http://www.w3.org/TR/2001/REC-SVG-20010904/DTD/svg10.dtd">
<svg version="1.0" xmlns="http://www.w3.org/2000/svg"
 width="1000.000000pt" height="500.000000pt" viewBox="0 0 1000.000000 500.000000"
 preserveAspectRatio="xMidYMid meet">
<metadata>
Created by potrace 1.16, written by Peter Selinger 2001-2019
</metadata>
<g transform="translate(0.000000,500.000000) scale(0.100000,-0.100000)"
fill="#000000" stroke="none">
<path d="M0 4634 l0 -365 23 5 22 6 -22 -11 c-20 -11 -34 -36 -15 -27 58 26
263 143 277 158 14 16 20 18 27 8 5 -8 7 -2 4 16 -3 16 -8 31 -12 35 -4 3 -4
-2 0 -13 5 -15 3 -17 -16 -12 -13 3 -26 6 -30 6 -22 0 20 143 44 148 21 5 67
85 80 141 9 39 9 60 0 84 -8 23 -9 51 -2 97 5 36 10 71 10 78 0 9 -46 12 -195
12 l-195 0 0 -366z"/>
<path d="M484 4963 c-4 -21 -10 -42 -14 -48 -4 -5 -18 -37 -30 -70 -19 -50
-23 -79 -23 -171 1 -149 19 -210 82 -278 41 -43 49 -59 54 -102 3 -29 3 -77 0
-108 -6 -55 -7 -56 -43 -66 -51 -14 -55 -20 -89 -150 -7 -25 -19 -67 -26 -95
-15 -51 -48 -191 -105 -444 -27 -118 -30 -145 -19 -151 7 -5 11 -11 8 -14 -7
-8 -217 60 -246 79 -12 8 -25 15 -28 15 -3 0 -5 -76 -5 -168 0 -165 1 -169 22
-181 l23 -12 -22 5 c-17 3 -23 -1 -23 -15 0 -10 5 -19 10 -19 14 0 12 -27 -2
-33 -10 -3 -9 -8 2 -20 19 -19 70 -31 70 -16 0 7 11 8 32 3 18 -3 82 -6 143
-6 106 1 113 2 190 39 44 21 103 51 130 67 28 16 51 30 52 30 1 1 -2 21 -7 46
-10 53 -7 59 19 36 10 -9 40 -19 68 -22 43 -6 49 -9 51 -31 2 -26 35 -157 47
-185 5 -12 -1 -21 -23 -32 -16 -8 -37 -28 -47 -43 -20 -30 -75 -83 -87 -83 -5
0 -8 -9 -8 -19 0 -13 -5 -18 -18 -14 -15 4 -20 -6 -30 -69 -6 -40 -17 -138
-23 -218 -10 -143 -22 -215 -40 -236 -5 -6 -11 -28 -15 -50 -8 -52 -14 -56
-14 -9 0 21 -3 35 -7 32 -3 -4 -6 -40 -5 -79 2 -97 -7 -74 -18 48 -9 97 -9 95
-5 -44 3 -137 2 -148 -27 -240 -17 -54 -34 -101 -38 -105 -4 -5 -10 6 -13 23
-6 29 -37 72 -37 53 -1 -18 -29 44 -30 64 0 16 -4 21 -16 16 -14 -5 -15 -3 -6
13 6 11 13 49 16 84 l6 65 -19 -53 c-10 -29 -22 -56 -26 -60 -9 -8 -7 1 29
143 14 55 26 110 26 123 0 12 4 22 10 22 6 0 8 15 4 36 -4 24 -2 34 5 30 7 -5
7 3 0 24 -14 38 -23 39 -15 3 6 -25 5 -26 -8 -10 -12 15 -14 10 -14 -45 0 -35
-5 -90 -11 -123 -14 -70 -61 -208 -73 -213 -4 -2 -8 -11 -8 -19 0 -13 3 -13
15 -3 12 10 15 9 15 -6 0 -37 -21 -94 -35 -94 -8 0 -12 8 -9 22 l5 23 -10 -22
c-9 -21 -12 -21 -59 -8 -28 7 -71 27 -96 44 l-46 32 0 -106 0 -105 48 -1 47
-1 -47 -10 -48 -10 0 -824 0 -824 1556 0 c855 0 1553 4 1550 9 -5 8 -100 23
-146 23 -14 0 -37 -3 -52 -7 -16 -4 -28 -3 -28 2 0 5 20 14 45 21 47 13 71 10
227 -28 70 -16 113 -20 215 -18 l128 3 -75 18 c-41 10 -86 25 -100 33 -17 10
-18 13 -5 8 11 -3 38 -10 60 -15 22 -4 74 -17 115 -28 61 -17 106 -21 243 -21
101 0 167 4 167 10 0 5 14 25 31 45 24 27 27 35 14 35 -20 0 -14 24 7 28 26 5
30 -28 7 -64 -11 -19 -25 -34 -30 -34 -5 0 -9 -5 -9 -10 0 -14 153 -11 163 4
6 8 10 8 14 -1 3 -10 43 -13 151 -12 140 0 145 1 107 15 -22 8 -46 17 -54 19
-8 3 -12 7 -10 9 4 5 87 -14 149 -33 21 -7 137 -11 300 -10 237 0 261 2 227
14 -65 24 -146 34 -357 45 -163 8 -241 17 -382 45 -98 19 -186 39 -196 44 -10
6 -34 8 -52 6 -37 -5 -83 26 -74 50 3 7 -10 21 -29 33 -31 18 -36 27 -47 86
-7 36 -9 77 -6 90 3 14 2 35 -3 48 -11 28 2 42 67 70 26 11 62 34 80 52 35 33
52 35 162 21 152 -20 203 -18 197 7 -3 15 55 31 64 17 5 -8 8 -8 10 0 2 6 29
15 60 20 30 5 89 20 130 34 41 13 137 37 214 52 77 16 145 35 150 42 6 7 27
14 48 15 20 1 37 4 37 8 0 10 54 32 71 29 15 -2 42 6 71 22 9 5 32 6 49 2 23
-4 30 -3 25 5 -5 8 4 12 28 12 20 0 36 4 36 9 0 6 17 10 39 9 21 0 55 5 75 11
20 6 51 16 70 21 19 6 52 13 73 16 33 4 120 32 163 54 9 4 30 11 48 15 18 3
32 11 32 16 0 20 23 -5 61 -65 40 -63 52 -71 22 -13 -29 53 -65 100 -97 128
l-30 26 45 25 c24 14 56 32 71 39 15 8 70 40 122 72 62 39 123 67 177 83 45
13 88 29 95 35 8 6 28 38 45 70 36 67 81 101 207 154 43 18 104 47 134 64 49
28 57 37 67 76 9 37 16 46 39 50 15 3 56 12 92 20 82 19 83 19 68 -5 -12 -18
-13 -19 -19 -2 -6 14 -8 12 -14 -9 -3 -15 -16 -32 -28 -38 -22 -11 -21 -11 2
-5 35 9 17 -15 -25 -32 -46 -19 -47 -19 -42 26 3 36 1 40 -19 40 -12 0 -25 -4
-28 -10 -3 -5 -7 -58 -9 -118 -1 -59 -5 -113 -10 -120 -4 -7 -1 -12 8 -12 12
0 14 -7 10 -30 -4 -20 -2 -30 5 -30 7 0 11 -8 10 -18 -1 -9 1 -33 5 -52 15
-73 12 -209 -5 -330 -27 -183 -37 -217 -85 -297 -24 -40 -44 -83 -44 -95 0
-31 -146 -171 -214 -205 l-50 -25 49 -19 c26 -10 61 -30 76 -45 l28 -27 65 17
c95 24 158 20 256 -14 46 -17 86 -30 88 -30 6 0 -5 80 -12 87 -5 5 -7 -9 -4
-29 3 -27 0 -38 -9 -38 -9 0 -14 19 -15 63 l-2 62 -3 -52 c-6 -84 -23 -61 -22
30 0 45 -4 145 -10 222 -5 76 -7 143 -4 148 2 4 0 14 -6 21 -13 16 -40 193
-48 317 -4 74 -2 113 12 168 18 76 42 100 31 31 -5 -32 -3 -40 9 -40 8 0 15 7
15 15 0 8 5 15 11 15 7 0 8 -14 4 -39 -8 -46 7 -61 24 -25 14 32 30 23 24 -13
-3 -26 -3 -27 7 -5 l9 22 48 -23 c66 -33 112 -47 119 -36 3 5 10 9 15 9 6 0 8
-4 4 -9 -11 -19 14 -21 27 -2 12 16 16 17 32 6 15 -12 17 -22 11 -67 -4 -29
-14 -71 -22 -93 -7 -22 -10 -41 -5 -43 6 -2 7 -283 1 -602 l-1 -45 -10 53
c-16 87 -31 58 -34 -65 -1 -61 -5 -116 -8 -122 -8 -13 40 -38 123 -66 36 -12
66 -26 68 -32 7 -19 -24 -40 -69 -47 -24 -4 -74 -19 -113 -33 -76 -28 -161
-34 -275 -20 -54 6 -62 6 -45 -5 26 -16 329 -23 320 -8 -4 7 3 9 22 5 19 -5
24 -4 14 3 -10 7 -3 11 25 16 63 10 69 12 83 21 10 6 12 4 7 -4 -5 -8 -3 -11
5 -10 8 2 42 -3 77 -10 68 -15 83 -11 61 16 -8 9 -9 14 -4 11 6 -4 17 -2 25 4
13 8 13 9 -1 5 -9 -3 -22 -1 -30 4 -10 6 -10 9 -1 9 6 0 12 5 12 11 0 6 -7 8
-16 5 -9 -3 -12 -2 -9 5 4 6 13 8 20 5 7 -2 18 1 24 7 9 9 14 9 20 -2 6 -9 14
-10 22 -5 8 5 23 7 33 5 30 -5 119 -58 146 -86 22 -24 68 -36 55 -15 -3 6 -1
10 4 10 6 0 11 -4 11 -10 0 -5 5 -10 11 -10 8 0 7 5 -1 15 -10 13 -10 19 4 34
15 17 15 19 1 25 -9 3 -14 10 -10 15 3 5 -1 27 -8 48 -12 36 -12 38 8 40 78 8
175 27 175 34 0 5 11 9 23 9 13 0 38 7 55 16 17 8 48 18 69 21 21 3 47 13 57
22 11 9 16 10 12 4 -10 -18 5 -16 32 3 12 8 27 12 32 9 6 -3 16 -3 23 2 24 15
84 13 98 -3 17 -21 19 -55 2 -61 -7 -3 -13 -11 -13 -18 0 -7 -14 -18 -30 -24
-17 -5 -33 -17 -36 -26 -3 -8 -14 -15 -23 -15 -9 0 -29 -12 -44 -26 -15 -14
-41 -30 -57 -36 -17 -5 -30 -14 -30 -19 0 -5 -9 -9 -19 -9 -11 0 -26 -7 -34
-14 -8 -8 -30 -22 -48 -30 -32 -14 -26 -14 109 -15 139 -1 185 6 282 46 8 3
22 7 30 9 36 7 91 36 97 49 3 8 14 15 25 15 10 0 16 4 13 10 -3 5 1 10 9 10 8
0 20 9 26 20 6 11 22 23 35 26 14 3 23 9 21 13 -2 3 12 6 31 7 19 0 38 5 41
11 12 18 45 30 99 38 44 6 57 13 92 51 22 24 47 44 55 44 22 0 157 86 149 94
-4 4 -1 5 7 2 9 -4 39 15 73 44 32 28 65 50 72 50 7 0 24 13 37 28 38 46 55
47 107 6 29 -23 18 -8 -32 40 l-78 76 103 105 c57 58 127 120 155 138 29 17
112 88 185 156 73 68 161 144 195 170 l63 46 0 976 0 976 -62 6 c-35 4 -111
10 -170 13 l-106 7 -7 -69 c-7 -69 -24 -122 -25 -78 0 11 -10 29 -21 40 -12
10 -39 42 -60 71 -34 45 -44 53 -84 59 -41 6 -82 0 -140 -21 -19 -6 -19 -6 -2
8 9 8 17 27 17 43 0 30 14 24 24 -11 3 -12 4 -9 2 8 -2 15 1 30 5 33 5 3 9 16
9 30 0 14 6 24 14 24 14 0 26 41 26 88 0 38 -10 20 -20 -35 l-8 -48 -1 39 c-1
48 -9 43 -20 -15 -9 -44 -9 -44 -10 21 0 41 3 60 8 51 6 -10 13 4 21 44 7 35
15 53 20 45 4 -7 10 23 14 66 4 44 9 95 11 114 5 34 5 35 -4 5 -5 -16 -13 -61
-17 -100 -6 -49 -9 -61 -13 -40 l-4 30 -13 -40 -12 -40 -1 43 c-1 23 3 42 7
42 27 0 40 96 22 158 -7 28 -7 32 5 22 7 -6 16 -7 19 -2 8 14 -4 22 -32 22
-14 0 -34 7 -44 17 -10 9 -18 11 -18 5 0 -6 11 -19 24 -27 32 -21 52 -93 37
-132 l-10 -28 0 30 c1 17 1 40 0 52 -1 25 -56 93 -76 93 -7 0 -15 9 -18 21 -4
16 -3 18 9 8 21 -17 17 5 -4 24 -10 10 -28 17 -40 17 -16 0 -22 6 -22 21 0 36
19 59 49 59 35 0 54 21 80 90 28 72 27 98 -3 111 -21 10 -23 17 -22 72 1 70
-8 154 -18 164 -3 3 -6 16 -6 29 0 12 -4 24 -8 26 -4 2 -28 30 -54 63 -33 44
-60 67 -97 84 -28 14 -51 28 -51 33 0 5 13 32 29 61 16 28 32 68 36 87 l7 35
-27 -30 c-54 -63 -77 -104 -73 -130 5 -23 2 -25 -28 -25 -38 0 -42 14 -20 65
14 33 7 81 -21 145 -32 73 -18 70 -298 70 l-253 0 -11 -29 c-7 -16 -14 -89
-17 -162 -2 -74 -6 -170 -8 -214 -3 -56 0 -88 10 -105 l13 -25 1 25 c1 24 1
24 35 -12 l35 -38 -5 -91 c-3 -51 -8 -96 -11 -100 -3 -5 5 -19 16 -31 l21 -23
-4 25 c-2 14 -2 19 0 13 5 -13 23 -18 23 -7 0 4 -10 22 -21 41 -12 19 -19 36
-16 39 3 3 13 -8 22 -25 8 -17 20 -31 26 -31 6 0 7 -4 4 -10 -3 -6 1 -7 9 -4
30 11 15 -11 -25 -40 -23 -16 -49 -43 -60 -60 l-18 -30 4 34 c11 92 13 140 5
135 -4 -3 -6 5 -2 17 4 18 2 20 -14 15 -15 -5 -14 -3 4 9 25 19 28 48 7 84
l-15 25 6 -27 c7 -32 -28 -100 -60 -117 -11 -6 -30 -17 -41 -25 -14 -11 -25
-12 -35 -6 -13 9 -13 11 0 20 12 8 10 10 -10 11 -14 1 -29 0 -35 -1 -5 -1 -21
-4 -34 -6 -24 -3 -41 -19 -41 -41 0 -6 -9 -18 -19 -25 -11 -8 -25 -25 -31 -38
-7 -14 -39 -47 -71 -74 -33 -26 -57 -51 -54 -55 4 -3 15 4 25 17 10 12 22 22
26 22 4 0 16 8 27 18 19 16 20 16 14 -1 -4 -11 -3 -16 4 -12 6 4 8 13 6 19 -3
7 15 35 40 62 25 27 43 42 41 34 -3 -8 1 -26 8 -39 7 -14 10 -29 6 -35 -4 -6
-8 -1 -10 12 -2 12 -8 22 -13 22 -5 0 -11 0 -14 0 -3 0 -5 -3 -4 -6 0 -3 -8
-12 -18 -20 -17 -13 -17 -14 2 -8 15 5 11 -3 -15 -30 -29 -30 -32 -39 -20 -46
10 -6 22 -3 38 13 13 12 18 23 13 25 -15 5 -14 19 2 25 15 6 17 -30 3 -52 -7
-11 -5 -13 8 -8 10 4 5 -8 -16 -34 -18 -22 -34 -36 -36 -30 -4 12 -3 22 1 19
7 -5 37 24 37 34 0 6 -7 5 -15 -2 -8 -7 -21 -10 -28 -7 -11 4 -13 -2 -11 -24
2 -16 -1 -29 -6 -29 -6 0 -10 6 -10 13 0 8 -3 9 -8 1 -4 -6 -27 -25 -51 -42
-24 -18 -39 -32 -33 -32 6 0 14 5 17 10 3 6 12 10 18 10 7 -1 -4 -15 -23 -33
-19 -18 -31 -29 -26 -24 17 13 29 7 16 -8 -7 -8 -8 -15 -2 -15 5 0 15 6 21 14
9 11 9 15 -1 20 -7 3 -3 3 9 1 12 -3 24 -1 28 5 3 5 1 10 -6 10 -8 0 -8 4 1
15 10 12 10 15 0 15 -10 0 -10 3 0 15 7 8 17 15 22 15 6 0 5 -7 -2 -15 -19
-23 4 -18 25 5 10 11 20 18 23 15 8 -8 -29 -45 -45 -45 -7 0 -13 -4 -13 -10 0
-18 16 -10 50 25 39 40 56 39 19 -2 -19 -21 -20 -25 -6 -20 26 10 12 -8 -26
-33 -32 -22 -32 -22 -8 -1 44 40 13 33 -43 -8 -31 -23 -56 -38 -56 -33 0 4
-18 19 -40 32 -23 15 -40 33 -40 45 -1 16 -3 17 -8 5 -15 -33 -67 -81 -83 -77
-11 3 -16 0 -13 -8 3 -7 1 -16 -5 -20 -6 -3 -15 4 -20 17 -5 13 -21 36 -37 51
-16 16 -20 25 -11 21 22 -8 22 4 0 28 -20 22 -1 24 21 2 14 -14 18 -10 15 12
0 4 4 10 9 13 5 3 12 22 16 41 l6 35 -15 -30 c-9 -18 -14 -23 -15 -13 0 14 -4
15 -30 7 -26 -10 -30 -16 -30 -49 0 -38 0 -38 -27 -25 -16 7 -58 18 -94 25
-57 11 -72 11 -112 -3 l-47 -16 0 40 c0 21 4 39 10 39 5 0 7 -7 4 -15 -9 -23
4 -51 18 -37 7 7 7 19 0 40 -8 25 -7 34 7 49 28 30 58 78 42 69 -9 -6 -12 -5
-9 5 3 8 10 13 16 12 5 -1 8 5 6 15 -3 10 11 33 36 58 31 32 37 43 25 48 -8 3
-15 0 -15 -6 0 -6 -3 -8 -6 -5 -4 3 -16 2 -27 -4 -15 -9 -18 -8 -11 3 11 18
57 54 66 50 5 -1 8 5 8 13 0 8 4 15 10 15 6 0 19 9 30 20 12 12 25 18 30 15 6
-4 10 -2 10 3 0 14 55 19 87 8 17 -5 22 -4 18 6 -8 19 -63 39 -71 26 -4 -6
-10 -5 -15 3 -7 11 -9 11 -9 -1 0 -27 -38 -21 -45 7 -3 14 -8 23 -11 21 -2 -3
0 -17 5 -31 13 -35 0 -44 -15 -10 l-13 28 6 -31 c6 -35 -20 -67 -31 -38 -3 9
-13 14 -21 11 -12 -5 -12 -2 -3 18 10 23 12 23 25 7 13 -15 14 -15 9 10 -3 14
-9 34 -13 45 -6 16 -5 16 10 4 15 -12 17 -12 11 3 -3 9 -2 16 4 16 6 0 13 -6
15 -12 3 -7 6 -8 6 -3 0 6 -4 17 -10 25 -8 11 -12 12 -16 2 -6 -16 -23 -6 -23
14 0 8 4 12 10 9 5 -3 10 -2 10 4 0 5 -4 12 -9 16 -13 7 -23 -28 -15 -50 5
-12 4 -16 -3 -12 -6 4 -13 18 -15 32 -3 13 -1 22 3 19 5 -3 9 0 9 5 0 18 -43
5 -50 -14 -6 -17 -7 -17 -13 -2 -3 9 -2 17 4 17 6 0 7 4 4 10 -3 5 1 23 10 40
15 29 13 50 -4 50 -7 0 -14 -13 -25 -50 -9 -29 -145 -120 -180 -120 -25 0 -76
50 -76 75 0 12 24 25 59 31 7 1 23 11 35 21 11 10 36 28 53 41 25 17 31 19 26
6 -5 -14 -3 -15 14 -6 11 6 23 9 25 6 3 -3 8 4 11 16 5 21 -2 26 -19 12 -5 -4
-1 1 9 10 10 10 23 33 28 52 5 19 21 41 34 50 25 16 25 16 25 -18 0 -19 5 -38
10 -41 6 -3 10 0 10 7 0 8 16 29 36 48 33 31 36 37 31 78 -3 24 -9 47 -15 51
-5 3 -7 25 -3 51 l6 45 17 -25 c9 -14 22 -38 29 -55 7 -16 19 -38 27 -47 22
-27 15 -128 -9 -128 -5 0 -6 24 -3 58 l7 57 -42 -55 c-56 -74 -59 -90 -25
-147 15 -26 31 -61 35 -78 7 -30 7 -30 8 7 1 20 -4 48 -10 62 -14 30 -4 70 11
46 8 -13 10 -12 10 2 0 9 11 29 25 44 31 33 33 84 5 139 -11 22 -20 47 -20 57
0 10 -4 18 -9 18 -5 0 -11 14 -14 30 l-6 30 -546 0 -546 0 -43 -32 c-24 -18
-52 -45 -62 -61 -18 -26 -21 -27 -78 -21 -43 5 -57 4 -52 -5 4 -6 17 -11 29
-11 12 0 31 -3 43 -6 20 -5 20 -6 3 -42 -18 -36 -43 -221 -33 -245 2 -7 0 -34
-5 -60 -5 -26 -5 -50 0 -53 5 -3 7 -46 5 -97 -3 -51 0 -118 5 -151 7 -43 6
-66 -3 -87 -13 -30 -27 -38 -29 -16 0 6 -5 -3 -11 -22 -7 -26 -12 -31 -18 -21
-8 12 -10 12 -14 0 -2 -8 -9 -28 -15 -45 -11 -29 -11 -29 -7 -3 1 15 -1 25 -5
22 -5 -3 -9 1 -9 8 0 21 34 98 44 98 4 0 6 -7 2 -15 -3 -8 -1 -15 4 -15 6 0
10 7 10 15 0 9 7 18 15 21 20 8 19 34 -1 34 -8 0 -21 -6 -29 -13 -18 -18 -75
-153 -76 -181 -1 -19 -2 -19 -8 3 -4 17 2 43 21 82 36 76 37 102 3 65 -13 -14
-29 -26 -35 -26 -5 0 -10 -4 -10 -10 0 -5 8 -7 18 -4 10 4 13 3 6 -3 -6 -4
-10 -18 -9 -31 1 -13 -3 -26 -8 -29 -6 -3 -7 -1 -3 5 4 7 2 12 -5 12 -8 0 -8
4 -1 13 7 8 6 16 -4 25 -12 11 -14 9 -14 -10 0 -14 -11 -32 -27 -43 -14 -11
-32 -26 -40 -33 -11 -11 -13 -11 -13 3 0 9 -4 14 -9 11 -5 -4 -8 -32 -6 -64 3
-55 1 -59 -29 -80 -40 -27 -147 -138 -121 -124 11 6 29 20 39 31 11 12 23 21
28 21 4 0 -10 -16 -32 -36 l-41 -37 -23 22 c-13 13 -41 29 -63 36 -47 16 -52
6 -29 -62 24 -70 19 -66 -25 20 -39 76 -68 99 -70 55 l0 -23 -9 23 c-13 30 -2
56 16 41 17 -14 19 2 2 19 -17 17 -28 15 -29 -5 0 -10 -5 -3 -10 16 -6 18 -13
31 -16 28 -3 -3 3 -29 12 -58 18 -53 18 -170 -1 -382 -4 -40 -4 -70 -1 -67 5
5 30 244 31 298 1 12 4 22 9 22 4 0 5 -30 2 -67 -2 -38 -7 -99 -10 -138 -7
-99 -22 -216 -36 -269 -16 -65 -9 -77 36 -65 33 9 39 8 54 -12 9 -13 18 -26
21 -30 3 -3 19 -13 36 -22 23 -12 61 -15 159 -15 108 1 130 -2 140 -15 9 -12
28 -17 66 -17 l53 0 -32 29 c-17 16 -41 32 -52 36 -13 4 -19 13 -16 23 2 9 7
46 11 82 5 56 4 62 -7 44 -7 -12 -26 -40 -41 -63 -15 -23 -33 -53 -39 -66 -10
-22 -12 -23 -34 -8 -22 14 -22 16 -7 41 l15 27 -19 -23 c-17 -20 -22 -22 -48
-12 -17 7 -47 15 -67 18 l-38 7 47 60 c26 33 56 66 65 73 10 7 18 21 18 30 0
19 30 70 78 132 24 32 32 54 32 84 1 23 6 51 13 64 17 30 127 112 151 112 12
0 16 5 12 15 -4 11 2 15 23 15 15 0 42 5 60 11 33 12 121 91 121 109 0 5 5 10
10 10 15 0 12 -24 -10 -75 -23 -54 -24 -59 -8 -49 8 5 9 2 5 -10 -4 -10 -7
-26 -7 -35 0 -12 -13 -22 -40 -30 -22 -7 -38 -16 -36 -20 3 -4 -4 -32 -15 -61
-11 -29 -18 -58 -16 -64 2 -6 7 4 11 21 4 18 11 35 16 38 5 3 4 -9 -2 -27 -25
-80 -37 -173 -26 -223 12 -61 12 -58 3 -125 -9 -67 3 -61 15 7 8 41 9 37 4
-27 -10 -145 -17 -200 -25 -200 -5 0 -9 5 -9 10 0 6 -8 10 -17 10 -26 -1 16
-33 100 -76 37 -19 67 -37 67 -40 0 -3 -15 -3 -32 1 -33 6 -33 6 -8 -8 14 -8
51 -19 83 -26 64 -14 73 -27 25 -36 -185 -31 -194 -33 -148 -34 25 0 74 4 110
10 36 6 75 11 87 11 14 0 20 5 16 14 -3 8 -9 14 -14 14 -6 0 -5 8 1 19 5 11 9
35 9 53 -1 19 -3 25 -6 13 -2 -11 -6 -30 -9 -42 -2 -13 -8 -23 -13 -23 -8 0
14 129 24 139 3 2 5 -9 6 -25 l1 -29 9 25 c6 17 7 -1 5 -55 -3 -51 -1 -69 4
-50 4 17 8 50 9 73 1 35 5 45 21 49 11 3 20 11 20 18 0 7 6 18 14 24 11 10 11
3 0 -46 -7 -32 -16 -88 -20 -125 -6 -57 -4 -69 10 -74 33 -13 14 -23 -33 -17
-27 3 -78 1 -113 -5 -197 -35 -380 -59 -620 -82 l-98 -10 -51 31 c-45 26 -56
29 -81 20 -26 -9 -29 -8 -24 5 4 12 2 15 -9 10 -8 -3 -15 -1 -15 4 0 6 5 10
11 10 6 0 5 6 -3 13 -16 17 -143 97 -152 97 -9 0 -31 18 -58 48 -12 12 -24 22
-27 22 -3 0 -6 -26 -7 -57 0 -81 -17 -147 -48 -191 -14 -21 -26 -50 -26 -66 0
-29 -29 -137 -88 -326 -30 -99 -36 -112 -45 -92 -22 48 -187 101 -277 87 -25
-3 -67 -8 -95 -11 -27 -3 -65 -7 -84 -9 l-34 -3 8 51 c4 29 7 81 6 117 -1 40
2 60 7 52 5 -7 7 -25 5 -40 -4 -24 -3 -25 7 -9 7 10 10 35 8 55 -3 21 2 64 9
97 29 121 35 162 38 245 2 47 6 96 10 110 17 65 7 93 -14 40 -12 -33 -17 -70
-16 -130 1 -55 -3 -92 -11 -105 -7 -11 -16 -40 -20 -65 -4 -25 -10 -49 -14
-55 -13 -17 -48 -177 -56 -255 -7 -65 -9 -70 -15 -40 l-6 35 -1 -40 c0 -22 3
-65 7 -95 7 -45 5 -60 -11 -86 -11 -18 -20 -47 -20 -63 -1 -17 -8 -37 -16 -43
-13 -11 -14 -8 -9 22 12 67 17 115 10 100 -3 -8 -9 -17 -13 -20 -11 -8 -29
-143 -23 -172 3 -19 1 -28 -7 -28 -10 0 -11 15 -7 58 3 31 2 77 -3 102 -7 41
-8 38 -10 -35 -1 -44 -1 -100 0 -124 1 -29 -2 -41 -9 -37 -7 4 -11 42 -11 92
0 51 -4 83 -9 79 -6 -3 -8 -50 -6 -108 5 -113 -10 -117 -21 -6 -9 98 -17 85
-12 -18 6 -103 -5 -124 -18 -35 l-9 57 -6 -70 -5 -70 -3 90 c-3 110 -10 99
-19 -31 -7 -97 -7 -98 -36 -105 -15 -4 -74 -9 -130 -10 -143 -2 -143 -13 -1
-19 l120 -6 -121 -2 -121 -2 -6 112 c-4 62 -7 154 -7 204 l0 92 45 6 c41 7 45
10 45 36 0 35 -41 70 -79 69 -23 0 -24 -1 -6 -9 14 -6 -1 -9 -49 -9 -38 -1
-66 -4 -62 -8 8 -9 -165 -44 -356 -73 -75 -11 -179 -29 -232 -40 l-95 -19 -67
24 c-36 13 -68 26 -71 28 -2 3 18 3 44 1 42 -3 44 -2 18 6 -16 5 -79 19 -140
30 -134 26 -166 40 -303 129 -59 39 -124 77 -144 85 -86 37 -339 59 -393 36
-17 -7 -15 -9 12 -9 17 -1 34 -5 37 -10 7 -11 -105 -25 -132 -17 -11 4 -32 2
-47 -4 -16 -6 -31 -7 -34 -2 -3 5 -40 6 -81 3 l-75 -6 125 -18 c69 -9 153 -17
187 -17 66 0 187 21 264 45 60 19 62 19 49 -5 -6 -11 -17 -20 -24 -20 -8 0
-19 -7 -26 -15 -11 -13 -8 -14 21 -9 24 4 30 3 20 -4 -28 -20 -20 -40 18 -47
20 -3 65 -15 101 -25 36 -10 85 -24 109 -30 23 -6 41 -14 38 -16 -3 -3 -54 8
-114 24 -59 17 -130 34 -158 38 -49 7 -50 6 -32 -13 9 -11 17 -21 17 -24 0
-13 -68 -5 -102 12 -32 16 -65 22 -157 25 -64 2 -159 9 -211 14 -52 6 -104 12
-114 13 -16 2 -22 -9 -32 -55 -8 -32 -23 -76 -34 -98 -11 -21 -20 -45 -20 -53
0 -7 -16 -39 -35 -71 -31 -52 -35 -66 -35 -131 0 -93 -15 -171 -37 -193 -16
-16 -16 -16 -10 1 3 9 2 17 -3 17 -6 0 -10 -11 -10 -24 0 -24 -1 -24 -27 -11
-20 10 -31 11 -40 3 -7 -6 -13 -8 -13 -6 0 3 -20 2 -44 -3 -59 -11 -225 -92
-275 -134 l-23 -20 6 50 c4 28 9 111 11 185 3 101 9 153 25 205 12 39 24 82
27 98 3 15 9 30 14 33 5 3 9 16 9 29 0 13 5 27 10 30 6 3 10 15 10 26 0 10 -4
19 -10 19 -5 0 -10 -11 -10 -25 0 -14 -4 -25 -9 -25 -5 0 -11 -10 -13 -22 -2
-13 -9 -22 -16 -20 -6 1 -13 -8 -13 -20 -1 -17 -2 -19 -6 -5 -10 38 -18 13
-19 -58 -1 -55 -5 -79 -16 -88 -21 -16 -33 -125 -31 -269 2 -98 0 -118 -12
-118 -8 0 -15 -6 -15 -12 0 -7 -8 -3 -18 10 -12 15 -24 21 -35 16 -12 -4 -17
-1 -17 10 0 21 -16 21 -24 0 -8 -21 -26 -8 -27 19 -1 18 -2 16 -10 -8 -4 -16
-5 -32 -1 -35 4 -3 13 -16 19 -30 l12 -25 0 28 c1 15 5 27 10 27 18 0 30 -87
24 -178 -4 -63 -3 -92 5 -92 6 0 14 9 17 21 4 11 13 18 20 15 8 -3 16 7 21 27
l7 32 4 -29 c6 -42 -5 -79 -22 -72 -9 3 -23 -7 -35 -24 -12 -17 -27 -30 -34
-30 -8 0 -19 -6 -26 -14 -6 -8 -18 -12 -26 -9 -8 3 -17 -5 -24 -21 -10 -26
-30 -36 -30 -15 0 8 -6 7 -17 -2 -13 -12 -17 -12 -21 -1 -3 10 -9 7 -19 -8 -9
-13 -21 -19 -31 -15 -8 3 -19 0 -23 -7 -5 -7 -16 -13 -26 -13 -16 0 -18 -8
-15 -70 2 -55 0 -66 -9 -52 -6 10 -12 37 -14 60 -5 76 -4 74 -15 57 -6 -9 -8
-41 -4 -78 4 -43 3 -62 -5 -62 -6 0 -12 10 -12 23 -2 21 -6 67 -11 95 -1 6 -6
12 -11 12 -6 0 -7 -27 -3 -70 4 -43 2 -70 -3 -70 -12 0 -24 59 -25 122 -1 25
-4 41 -8 35 -14 -22 -20 -95 -10 -113 5 -11 6 -28 2 -39 l-7 -20 -6 20 c-14
51 -18 124 -7 145 7 13 8 20 2 16 -19 -11 -34 -76 -29 -122 2 -24 1 -44 -4
-44 -13 0 -21 117 -9 140 6 12 10 24 7 26 -8 8 -37 -63 -37 -90 0 -14 -5 -26
-11 -26 -12 0 -8 61 6 93 5 13 0 11 -18 -7 -15 -15 -26 -30 -26 -34 1 -4 1
-20 -1 -37 -1 -25 -3 -27 -9 -11 -6 15 -13 5 -33 -50 -14 -38 -36 -95 -48
-127 l-22 -57 -51 6 c-72 8 -159 23 -164 28 -3 2 10 37 27 77 17 41 41 101 52
134 11 33 24 65 28 70 4 6 17 42 30 80 35 105 39 115 50 115 5 0 10 -11 10
-25 0 -15 6 -25 14 -25 8 0 22 -3 31 -6 11 -5 18 0 22 15 3 11 12 21 19 21 8
0 14 11 15 28 0 15 2 61 3 102 2 67 23 139 47 160 3 3 16 43 29 90 24 85 68
196 69 173 1 -7 -6 -30 -14 -50 -21 -57 -34 -142 -22 -146 7 -2 7 -35 -2 -103
-13 -102 -12 -244 2 -244 4 0 7 46 6 103 -1 56 3 113 9 127 5 14 13 62 17 105
6 72 28 210 54 335 15 71 110 321 145 384 13 22 29 58 35 78 7 20 18 41 25 47
9 8 8 -9 -6 -62 -24 -97 -22 -124 5 -64 12 27 25 45 30 41 4 -4 7 1 7 11 0 36
53 239 76 291 20 46 72 109 81 100 9 -8 -21 -54 -32 -50 -14 6 -50 -69 -41
-84 3 -6 2 -13 -3 -16 -10 -6 -46 -144 -39 -151 2 -2 30 58 63 132 33 75 74
159 92 187 18 28 39 76 48 106 9 30 20 69 25 85 12 44 6 96 -13 107 -10 5 -17
17 -17 26 0 17 90 84 129 97 11 3 21 14 22 23 0 11 3 12 6 5 9 -23 20 -14 20
17 0 36 -3 37 -29 8 l-19 -23 5 28 c4 15 2 27 -4 27 -5 0 -10 -13 -10 -30 0
-16 -4 -30 -8 -30 -4 0 -7 17 -5 38 l2 37 -14 -45 -15 -45 4 55 4 55 -13 -40
c-13 -39 -14 -39 -15 -10 l-2 30 -13 -35 -13 -35 -2 35 -2 35 -10 -38 c-7 -27
-14 -37 -25 -33 -8 3 -19 6 -24 6 -5 0 -9 7 -9 15 0 8 4 15 9 15 18 0 102 93
97 107 -3 8 -2 12 2 9 12 -7 24 5 52 49 37 58 50 92 50 130 0 18 9 77 20 132
11 54 20 101 20 106 0 4 4 7 9 7 5 0 11 -22 15 -49 4 -28 29 -96 56 -153 27
-57 50 -110 50 -119 0 -9 6 -31 14 -49 12 -30 11 -35 -6 -52 -11 -11 -17 -22
-15 -25 8 -7 79 33 109 61 15 14 32 26 37 26 6 0 14 6 18 13 4 7 26 25 48 40
22 15 55 38 73 51 19 14 54 27 85 31 74 10 213 53 228 71 17 21 75 44 110 44
26 0 27 -2 22 -35 -4 -24 -2 -35 6 -35 9 0 12 -19 11 -57 -2 -77 -2 -79 11
-66 6 6 17 9 24 7 20 -8 255 95 320 141 33 23 79 52 102 65 27 15 46 34 53 53
13 39 12 70 -2 37 -7 -18 -12 -21 -16 -11 -5 15 73 90 96 91 6 0 12 8 12 18 0
14 2 15 10 2 8 -13 10 -13 10 1 0 9 11 28 25 43 14 15 25 33 25 40 0 7 12 23
26 37 15 13 33 38 40 54 16 34 36 68 45 75 4 3 10 16 14 30 12 43 30 80 38 80
4 0 5 11 1 25 -4 15 -2 25 5 25 6 0 11 -7 11 -15 0 -8 5 -15 11 -15 7 0 5 10
-5 25 -14 22 -15 25 -1 25 8 0 15 -4 15 -10 0 -5 5 -10 10 -10 6 0 10 12 10
26 0 21 -4 25 -20 21 -16 -4 -20 0 -20 21 1 26 13 43 120 158 20 22 40 49 44
60 3 10 16 30 29 44 25 27 28 37 55 165 9 44 20 82 24 83 5 2 6 8 2 13 -3 5
-173 9 -402 9 l-397 0 -20 -31 c-16 -24 -37 -37 -88 -54 -37 -13 -67 -20 -67
-16 0 4 7 17 16 30 10 14 13 26 7 32 -6 6 -19 -7 -35 -38 -25 -48 -25 -48 -74
-46 -40 1 -44 -1 -24 -8 18 -6 11 -8 -28 -4 -32 2 -50 0 -47 -5 4 -6 -3 -10
-14 -10 -12 0 -21 5 -21 11 0 7 -9 9 -24 5 -19 -5 -25 -1 -30 18 -3 13 -13 26
-21 30 -20 7 -19 -13 1 -35 14 -15 14 -20 3 -32 -13 -12 -41 -26 -54 -27 -3 0
-21 -7 -41 -15 -45 -18 -45 -18 -38 0 4 8 1 15 -5 15 -6 0 -11 -7 -11 -16 0
-13 -6 -11 -25 10 -13 14 -31 26 -39 26 -8 0 -24 12 -35 26 -21 27 -21 27 -42
8 -21 -18 -21 -18 -41 9 -11 15 -29 27 -41 28 -21 1 -20 1 2 8 23 6 23 7 6 24
-13 13 -20 15 -25 7 -6 -9 -9 -9 -15 0 -4 6 -2 17 4 23 18 18 13 27 -19 27
-32 0 -37 -9 -18 -28 9 -9 9 -15 0 -24 -17 -17 -15 -28 7 -28 31 0 34 -28 3
-33 -37 -7 -86 -4 -89 6 -7 20 -1 27 25 28 24 1 23 3 -13 14 -42 13 -42 12 15
32 9 3 -1 10 -25 17 -34 10 -41 10 -49 -2 -5 -10 -4 -22 3 -33 18 -30 13 -41
-16 -37 -22 2 -29 9 -31 31 -3 28 -22 39 -22 12 0 -9 -9 -15 -22 -15 -48 0
-50 -17 -3 -22 25 -3 49 -8 52 -11 11 -12 -7 -37 -25 -37 -24 0 -48 -25 -32
-35 19 -12 11 -35 -14 -35 -20 0 -23 4 -18 22 5 19 4 20 -10 8 -16 -15 -14
-40 3 -40 5 0 9 -4 9 -10 0 -5 -7 -10 -16 -10 -18 0 -57 -37 -67 -64 -3 -8
-13 -13 -21 -10 -8 3 -17 1 -20 -4 -3 -6 1 -12 9 -16 20 -7 19 -50 -1 -67 -12
-10 -20 -10 -35 -1 -27 17 -31 15 -23 -10 6 -21 6 -21 -12 -4 -17 18 -18 18
-25 0 -4 -11 -8 -13 -8 -6 -1 20 -18 13 -24 -10 -4 -13 -13 -32 -21 -43 -14
-20 -14 -20 -33 1 -10 11 -24 19 -32 16 -10 -3 -12 0 -7 14 4 11 11 42 15 69
8 52 45 149 67 175 12 15 34 121 34 168 l0 22 -455 0 -454 0 -7 -37z m7025
-517 c-13 -23 -25 -33 -29 -26 -4 6 -21 -18 -40 -55 -18 -36 -31 -68 -28 -71
3 -3 10 9 16 25 13 37 27 41 18 6 -10 -40 -1 -29 29 31 30 61 44 69 20 11 -22
-52 -19 -64 10 -37 27 25 35 51 10 30 -22 -18 -18 -5 12 48 41 71 48 76 67 47
10 -15 12 -26 6 -30 -6 -3 -10 1 -10 9 0 19 -7 20 -24 3 -24 -24 -40 -61 -27
-65 6 -2 8 -9 4 -15 -4 -6 0 -8 9 -4 9 3 21 0 27 -6 8 -8 11 -8 11 1 0 7 5 12
10 12 6 0 10 -9 10 -21 0 -11 -4 -18 -9 -14 -5 3 -11 -3 -14 -12 -3 -15 -6
-14 -16 7 l-11 25 5 -27 c5 -27 -9 -40 -17 -16 -2 6 -14 -4 -26 -23 -28 -43
-28 -31 -1 22 11 23 18 43 16 46 -7 6 -44 -48 -50 -72 -4 -17 -5 -16 -6 5 l-2
25 -11 -25 c-6 -14 -14 -38 -19 -55 -8 -27 -8 -26 -4 9 6 52 -4 39 -26 -36
-12 -39 -17 -48 -14 -25 8 52 -2 46 -17 -10 -11 -43 -13 -45 -19 -23 -7 24 -7
24 -8 3 -1 -13 -3 -23 -6 -23 -2 0 -33 12 -69 26 l-64 27 24 45 c31 59 44 73
57 65 6 -4 8 0 4 11 -8 21 61 122 75 108 6 -6 6 -17 -1 -30 -16 -30 -13 -51 4
-28 7 10 18 16 22 13 5 -3 19 15 33 39 14 27 28 43 36 40 8 -3 20 9 31 31 9
20 18 32 20 26 2 -6 -6 -27 -18 -47z m-5205 -157 c-4 -7 -8 -26 -10 -43 -1
-17 -6 -32 -12 -34 -5 -1 -18 -10 -28 -18 -18 -14 -18 -15 4 -4 30 15 27 -1
-4 -24 -22 -15 -28 -16 -36 -5 -8 11 -9 10 -4 -3 3 -10 1 -18 -4 -18 -6 0 -10
-5 -10 -11 0 -13 -81 -99 -94 -99 -4 0 -5 7 -2 16 4 10 -8 5 -34 -13 -22 -15
-40 -32 -40 -36 0 -5 13 1 29 12 44 31 45 25 3 -14 -33 -31 -38 -33 -49 -18
-7 9 -13 12 -13 6 0 -7 5 -15 11 -19 12 -7 -38 -40 -54 -36 -4 1 -6 -1 -5 -5
4 -12 -14 -12 -39 0 -22 10 -21 11 19 49 23 22 58 53 78 70 19 16 71 63 115
104 44 40 102 94 130 118 48 42 66 52 49 25z m4711 -311 c28 -59 26 -158 -4
-216 -12 -24 -28 -45 -35 -48 -8 -3 -17 -21 -20 -40 -4 -19 -8 -34 -10 -34 -2
0 -20 7 -39 15 -20 8 -49 15 -65 15 -30 0 -102 26 -102 36 0 7 60 83 115 145
50 57 115 147 115 160 0 24 27 4 45 -33z m2219 -63 c-4 -8 -10 -15 -16 -15 -5
0 -7 -8 -4 -18 7 -21 -29 -81 -112 -190 -30 -40 -53 -75 -50 -77 3 -3 35 35
72 85 37 49 69 90 72 90 8 0 -5 -19 -75 -113 -57 -76 -66 -84 -77 -69 -10 14
-9 22 10 47 12 17 52 70 89 119 37 49 67 94 66 100 0 6 -6 3 -12 -8 -35 -54
-169 -226 -176 -226 -5 0 -14 7 -21 15 -11 13 -9 20 9 38 11 13 21 27 21 33 0
5 -11 -4 -24 -21 -13 -16 -28 -26 -33 -22 -9 9 67 78 78 71 16 -9 159 196 160
230 0 14 5 8 14 -17 8 -21 12 -44 9 -52z m-8724 59 c0 -14 2 -15 17 -3 15 13
16 7 10 -75 -6 -82 -10 -94 -49 -158 -24 -39 -55 -93 -71 -122 l-27 -51 6 45
c4 25 15 77 26 115 11 39 32 114 45 168 14 53 29 97 34 97 5 0 9 -7 9 -16z
m8200 -50 c0 -3 -13 -10 -30 -15 -16 -6 -30 -15 -30 -21 0 -5 -4 -6 -10 -3 -5
3 -10 1 -10 -5 0 -6 -4 -8 -10 -5 -16 10 -11 -1 7 -16 11 -10 14 -10 9 -1 -8
13 3 16 20 4 7 -5 3 -15 -12 -32 -22 -23 -24 -23 -24 -5 -1 18 -2 18 -10 3 -6
-9 -25 -26 -44 -37 -41 -26 -71 -28 -38 -3 21 16 21 18 3 18 -23 0 -42 -28
-31 -46 7 -11 19 -7 61 18 28 18 53 31 55 30 8 -9 -16 -27 -69 -53 -31 -15
-60 -32 -63 -37 -7 -11 67 19 81 33 15 15 31 10 32 -11 2 -20 -44 -60 -69 -60
-8 0 -25 -12 -39 -27 -20 -24 -21 -25 -2 -9 12 10 27 16 33 14 7 -2 -21 -35
-61 -72 -40 -38 -66 -65 -57 -60 26 15 138 122 138 132 0 6 16 19 35 31 19 11
35 19 35 17 0 -2 -38 -42 -85 -90 -47 -48 -85 -90 -85 -94 0 -3 13 7 30 23 16
16 33 26 36 22 9 -8 -76 -87 -93 -87 -7 0 -13 5 -13 11 0 5 -5 7 -10 4 -6 -4
-26 -1 -45 5 -27 9 -47 9 -84 -1 -32 -8 -53 -9 -65 -2 -15 8 -10 16 41 59 32
27 75 58 97 69 21 11 49 37 63 58 13 21 31 41 39 44 8 3 22 19 30 35 24 47 89
105 146 131 81 37 98 42 98 31z m-1591 -61 c15 2 32 7 39 11 17 10 15 -9 -2
-23 -11 -9 -15 -9 -19 1 -4 9 -6 9 -6 1 -1 -19 41 -44 54 -33 8 7 11 3 11 -13
-1 -16 13 -30 58 -57 32 -19 86 -61 119 -93 l59 -59 111 10 c67 6 117 7 127 2
11 -7 4 -10 -25 -10 -22 0 -47 -5 -55 -10 -11 -7 0 -10 37 -10 28 0 55 -4 58
-10 4 -6 -9 -10 -33 -10 -21 0 -59 -6 -83 -13 -24 -7 -64 -11 -88 -9 -39 4
-42 2 -37 -15 5 -15 -7 -27 -56 -58 -35 -22 -104 -81 -155 -132 -77 -77 -94
-100 -105 -140 l-12 -48 -7 35 c-5 29 -7 23 -9 -30 -1 -36 -1 -81 0 -101 1
-20 -5 -41 -13 -47 -12 -10 -13 -8 -9 13 2 15 0 25 -7 25 -6 0 -11 11 -11 24
0 14 -5 28 -12 32 -8 5 -9 2 -4 -11 14 -36 18 -102 8 -109 -23 -14 -55 67 -35
88 4 3 8 12 9 19 5 27 52 116 76 144 66 76 100 153 68 153 -12 0 -21 -30 -13
-42 3 -7 1 -8 -5 -4 -6 4 -19 -5 -28 -19 l-17 -26 -14 31 c-7 18 -13 37 -12
44 0 7 2 6 6 -1 9 -23 20 -13 15 13 -2 14 0 35 5 47 54 118 54 136 0 44 -45
-74 -73 -160 -93 -282 -8 -49 -21 -121 -29 -160 -12 -57 -13 -61 -9 -20 2 28
6 82 9 120 4 69 4 70 -5 15 -5 -30 -12 -83 -16 -118 -10 -86 -20 -86 -18 1 3
79 -2 66 -21 -63 l-13 -85 5 110 c3 61 3 108 0 105 -4 -3 -13 -70 -21 -149
-17 -157 -33 -208 -22 -71 18 242 46 435 77 539 10 35 19 71 19 80 -1 27 -50
-101 -56 -144 -3 -22 -11 -80 -19 -130 -8 -49 -19 -135 -24 -190 -20 -190 -25
-221 -29 -192 -2 15 2 74 8 130 7 56 14 134 15 172 l3 70 -13 -50 c-9 -37 -14
-46 -20 -32 -4 10 -2 24 5 32 7 8 9 22 6 32 -4 9 -1 20 6 24 18 11 6 19 -31
22 -34 2 -38 9 -16 27 8 7 15 18 15 24 0 7 7 21 15 32 14 18 15 15 11 -31 -5
-50 -5 -50 5 -10 5 21 7 45 5 52 -6 14 40 119 55 129 5 3 20 26 33 52 26 51
69 97 83 89 5 -3 17 10 27 28 11 19 22 32 26 30 10 -6 -1 47 -13 63 -5 6 -15
12 -21 12 -7 0 -6 -3 2 -9 11 -6 10 -16 -4 -49 -9 -23 -20 -42 -25 -42 -5 0
-4 12 2 26 14 39 4 40 -12 2 -15 -39 -40 -80 -45 -75 -7 7 63 172 72 170 5 -1
8 16 7 38 -1 22 3 39 9 39 6 0 8 -8 6 -18 -4 -12 1 -18 13 -18 14 0 15 4 8 18
-7 14 -6 18 5 18 8 0 18 -9 21 -20 3 -11 11 -20 16 -20 13 0 -4 30 -30 54 -12
11 -21 14 -21 8 0 -7 -4 -12 -10 -12 -5 0 -10 9 -10 19 0 22 33 34 38 14 2 -7
15 -11 31 -10z m-229 -243 c0 -3 -11 -34 -25 -68 -14 -34 -25 -71 -25 -82 0
-21 -56 -141 -70 -150 -4 -3 -17 -25 -29 -50 -28 -58 -49 -85 -58 -76 -4 4 0
12 9 17 10 5 24 33 33 61 20 67 12 74 -10 9 -20 -60 -29 -66 -22 -13 5 30 2
26 -13 -18 -18 -54 -18 -54 -20 -20 -2 25 -4 28 -7 13 -12 -60 -33 -2 -32 87
0 79 -3 125 -8 107 -2 -9 -9 -15 -14 -12 -20 13 -7 36 33 61 23 15 51 35 62
46 24 22 76 52 76 43 0 -3 11 6 24 20 14 15 30 24 35 20 6 -3 11 -2 11 3 0 5
11 10 25 10 14 0 25 -4 25 -8z m-5555 -376 c10 -34 14 -73 10 -102 -6 -53 -47
-159 -82 -212 -13 -19 -23 -41 -23 -49 0 -8 -22 -47 -50 -87 -27 -40 -50 -76
-50 -81 0 -5 -11 -20 -25 -33 -23 -22 -205 -376 -205 -400 0 -6 -5 -21 -11
-32 -9 -17 -13 -18 -20 -7 -6 10 -9 6 -9 -14 0 -34 -28 -135 -39 -141 -4 -3
-6 9 -5 27 2 18 -5 -7 -15 -55 -20 -102 -31 -120 -32 -57 l-1 44 -13 -50 c-26
-93 -11 154 15 260 14 56 20 103 16 127 -3 20 -2 39 4 43 5 3 7 12 3 20 -3 9
-1 28 5 43 6 15 13 39 16 55 4 15 11 27 17 27 6 0 6 -6 1 -17 -15 -30 -25
-113 -13 -113 6 0 11 15 11 34 0 19 15 65 33 102 43 92 50 104 59 104 14 0 9
-19 -10 -37 -20 -20 -45 -73 -38 -80 3 -3 11 4 18 16 7 12 18 21 24 21 6 0 15
14 20 31 5 17 14 31 19 31 6 0 15 4 22 9 7 6 12 6 15 -1 2 -6 9 3 15 21 12 31
11 34 -35 79 -53 53 -102 88 -102 72 0 -6 -23 -16 -50 -23 -34 -9 -46 -16 -38
-22 10 -6 9 -7 -2 -4 -30 8 -14 30 31 41 46 12 152 91 318 235 84 74 171 180
171 208 0 37 7 27 25 -33z m7534 -95 c46 -6 95 -16 109 -23 22 -12 16 -13 -64
-19 -49 -4 -102 -11 -119 -17 -23 -7 -15 -8 35 -4 36 4 63 4 60 1 -3 -3 -70
-18 -149 -32 -103 -19 -146 -23 -151 -15 -5 8 -14 8 -34 0 -34 -13 -46 -13
-46 0 0 6 8 10 18 11 13 0 12 3 -5 11 -34 16 -28 35 15 44 l37 7 -42 10 c-26
6 -43 16 -43 24 0 11 27 14 148 13 81 -1 185 -6 231 -11z m-1482 -114 c18 -17
33 -37 33 -44 0 -6 5 -11 10 -11 6 0 10 -9 10 -20 0 -11 5 -20 10 -20 15 0 12
47 -2 53 -8 3 -6 6 4 6 17 1 69 -19 78 -29 8 -10 120 -39 120 -31 0 3 -14 15
-32 25 -29 17 -30 20 -14 32 10 7 15 17 11 23 -3 6 1 11 9 11 9 0 16 -4 16
-10 0 -12 30 -1 49 18 20 19 61 45 65 41 9 -9 17 -71 10 -66 -5 3 -9 -8 -9
-24 0 -30 9 -37 21 -17 9 14 34 -18 34 -43 0 -35 108 -199 145 -219 30 -16 67
-107 68 -167 0 -24 4 -43 8 -43 20 0 59 24 59 37 0 7 4 13 9 13 5 0 16 3 25 6
11 4 16 1 16 -11 0 -13 8 -16 39 -14 22 2 46 -3 55 -10 14 -12 21 -12 42 0 24
12 27 11 45 -11 22 -30 23 -40 5 -108 -11 -45 -11 -50 1 -40 36 29 58 132 35
163 -13 19 -70 45 -99 46 -19 1 -13 4 21 11 46 8 51 7 74 -15 36 -37 41 -102
11 -162 -44 -87 -158 -166 -264 -181 -39 -6 -79 15 -83 44 -5 30 -18 28 -33
-7 -7 -16 -16 -28 -20 -26 -3 3 -16 -15 -28 -38 -22 -42 -115 -117 -146 -117
-8 0 -15 -4 -15 -8 0 -18 -134 -73 -180 -73 -22 -1 -70 -20 -70 -29 0 -12 -25
-19 -89 -26 -76 -7 -129 8 -181 51 -23 19 -45 35 -49 35 -11 0 -11 43 1 57 11
13 77 8 110 -8 11 -6 22 -4 32 6 8 8 19 15 25 15 6 0 11 7 11 16 0 9 -6 14
-12 12 -7 -3 -21 3 -31 13 -17 16 -17 18 -2 27 12 6 -9 11 -74 16 -139 10
-157 25 -31 25 110 1 153 -5 144 -20 -3 -5 2 -16 10 -25 9 -8 16 -22 16 -31 0
-9 6 -13 15 -9 8 3 15 2 15 -3 0 -5 11 -11 24 -13 19 -4 26 0 30 19 8 30 -26
97 -60 119 -23 16 -26 16 -37 0 -14 -18 -36 -13 -138 33 -40 18 -45 23 -43 51
1 21 -4 33 -18 41 -24 13 -45 35 -75 77 l-23 31 49 52 c27 29 59 73 71 98 70
145 74 150 86 140 7 -6 17 -8 22 -6 17 11 36 -13 59 -75 13 -34 25 -67 26 -73
5 -21 74 -102 97 -115 26 -14 68 22 65 54 -4 30 50 76 87 76 38 0 68 11 68 25
0 8 -15 23 -33 34 -41 25 -83 61 -72 61 5 0 4 5 -3 12 -20 20 -14 38 13 38 31
0 33 16 3 23 -13 3 -43 13 -68 22 -32 12 -75 17 -150 17 -69 0 -112 5 -126 13
-12 8 -36 16 -55 20 -29 5 -34 11 -34 33 0 15 9 36 20 47 11 11 21 27 23 35 2
8 10 20 19 27 8 7 13 18 10 25 -3 10 6 12 36 9 29 -2 50 -13 74 -36z m2248
-64 c-5 -68 -4 -101 4 -105 9 -6 281 -44 331 -47 13 0 13 -1 0 -6 -8 -3 -33
-14 -55 -24 l-40 -20 25 21 c24 21 24 22 3 17 -12 -3 -24 0 -26 7 -3 7 -9 6
-22 -4 -11 -8 -16 -10 -11 -3 5 9 2 11 -8 7 -19 -7 -21 -20 -3 -27 6 -3 2 -6
-10 -6 -22 -1 -27 -10 -24 -38 1 -7 -4 -10 -11 -8 -8 3 -23 -4 -35 -15 -24
-22 -43 -26 -43 -10 0 6 -7 10 -15 10 -8 0 -15 9 -15 20 0 11 -5 19 -12 18 -6
-2 -14 8 -18 22 l-7 25 -8 -29 c-8 -30 12 -163 26 -172 9 -5 108 66 108 79 1
5 -3 6 -8 3 -5 -4 -4 5 2 19 11 22 12 23 15 6 3 -19 4 -19 23 -3 11 9 21 15
24 12 2 -3 16 6 31 20 15 14 25 19 22 11 -2 -8 -19 -22 -38 -32 -18 -10 -36
-23 -39 -28 -9 -14 -123 -101 -133 -101 -4 0 -8 -9 -8 -19 0 -11 -4 -23 -10
-26 -5 -3 -10 3 -10 14 0 12 -7 21 -15 21 -16 0 -21 35 -6 44 5 3 7 15 4 27
-4 16 -8 17 -14 7 -7 -10 -9 -9 -9 4 0 11 -5 15 -15 12 -8 -4 -15 -1 -15 6 0
6 -4 9 -9 5 -5 -3 -13 0 -17 7 -5 8 -10 6 -15 -8 -7 -18 -8 -18 -9 1 -1 17 -3
17 -12 -5 -11 -25 -11 -24 -20 14 -13 58 -21 59 -13 1 10 -68 -8 -47 -24 28
-7 32 -15 56 -17 54 -3 -3 0 -25 6 -50 15 -58 8 -97 -8 -47 l-12 35 3 -33 c5
-49 -10 -49 -22 0 l-11 43 4 -42 c2 -24 0 -46 -5 -49 -5 -3 -10 5 -10 18 l-2
23 -4 -22 c-10 -52 -23 -17 -25 65 l-2 87 -6 -90 c-4 -56 -7 -73 -9 -45 -1 25
-6 63 -10 85 -8 34 -9 27 -12 -50 -1 -49 -4 -70 -6 -45 -2 25 -8 65 -15 88 -9
35 -8 46 2 52 11 7 11 24 2 92 -13 90 -15 124 -7 116 3 -3 10 -25 15 -49 l9
-44 -3 44 -4 43 36 -6 c88 -17 125 -8 142 34 8 20 16 27 20 19 4 -6 12 -9 18
-5 6 3 8 -1 6 -11 -2 -10 0 -31 6 -48 l10 -30 -5 34 c-4 30 -3 33 16 28 30 -8
66 8 74 32 13 44 17 18 10 -78z m-3360 -236 c-5 -2 -43 -9 -82 -15 -64 -10
-71 -13 -58 -27 8 -8 13 -18 10 -23 -8 -14 19 -18 62 -10 23 4 47 4 53 0 17
-10 -66 -22 -104 -14 -18 3 -52 0 -76 -6 -33 -9 -45 -9 -51 1 -6 10 -13 10
-36 0 -23 -9 -51 -9 -119 -1 -131 16 -157 21 -146 32 5 5 20 5 36 -2 37 -14
46 -13 40 4 -6 15 32 26 116 33 30 2 107 10 170 17 109 13 207 19 185 11z
m-1012 -837 c56 -100 48 -149 -37 -245 -67 -75 -120 -92 -300 -98 -77 -3 -149
-8 -158 -11 -35 -11 -98 -13 -98 -2 0 5 9 12 20 15 11 3 20 9 20 14 0 5 5 9
10 9 6 0 10 -7 10 -15 0 -8 5 -15 10 -15 6 0 10 13 10 29 0 23 9 37 38 58 33
25 75 62 136 118 21 20 41 61 110 228 8 20 19 37 24 37 6 0 13 20 16 44 l7 45
73 -72 c42 -42 88 -100 109 -139z m2694 194 c16 -10 28 -62 14 -62 -6 0 -11
-18 -11 -42 0 -24 -4 -49 -9 -57 -5 -8 -3 -24 6 -41 15 -30 12 -34 -54 -93
-22 -19 -67 -32 -58 -16 4 5 11 6 17 3 6 -4 9 -3 5 2 -3 5 -21 9 -41 8 -20 -1
-36 2 -36 7 0 5 -7 9 -16 9 -8 0 -13 -4 -10 -8 5 -8 -29 -52 -40 -52 -14 0
-54 34 -54 46 0 8 -3 14 -7 14 -14 0 -29 45 -23 70 7 29 59 47 89 30 16 -8 26
-4 53 20 18 16 37 30 42 30 13 0 35 32 36 52 0 19 58 85 75 87 6 0 15 -3 22
-7z m202 -67 c18 -55 19 -93 1 -65 -17 27 -109 -128 -110 -182 0 -16 -4 -28
-10 -28 -16 0 -11 -43 10 -85 24 -47 12 -70 -33 -61 -31 6 -54 -3 -93 -36 -28
-25 -22 -41 11 -28 31 12 45 -8 20 -27 -11 -7 -14 -13 -8 -13 7 0 15 5 18 10
3 6 14 10 23 10 11 0 0 -17 -33 -51 -28 -29 -43 -48 -35 -43 18 10 50 13 50 4
0 -7 -50 -85 -73 -113 -8 -10 -21 -15 -30 -11 -10 3 -24 -5 -39 -22 -13 -15
-32 -35 -42 -45 -20 -19 -20 -19 2 -19 30 0 36 -17 16 -48 -10 -15 -20 -38
-22 -52 -5 -44 -24 -93 -43 -114 -10 -10 -26 -42 -35 -70 -9 -28 -24 -62 -33
-76 -9 -14 -22 -36 -28 -50 -11 -21 -12 -12 -9 60 2 47 8 98 12 114 4 18 3 27
-3 23 -6 -4 -15 26 -22 71 -10 69 -9 82 5 112 14 28 19 31 24 16 3 -10 9 -17
13 -17 35 4 35 -6 2 -55 -14 -21 -25 -50 -24 -68 l1 -31 12 34 c6 18 21 41 32
50 11 9 24 25 28 36 8 19 10 18 19 -8 11 -27 35 -32 28 -6 -1 8 -4 24 -5 35 0
12 -6 19 -12 17 -25 -9 -23 17 2 42 14 14 23 29 19 33 -3 4 -15 -4 -25 -18
-10 -14 -22 -21 -27 -17 -9 10 -58 92 -72 122 -5 11 -30 45 -56 75 -39 44 -53
54 -74 51 -49 -6 -72 -24 -136 -106 -56 -71 -146 -155 -167 -155 -14 0 -8 23
10 44 21 24 50 111 59 176 3 25 10 53 15 63 5 11 12 66 14 124 4 100 33 246
53 266 6 6 8 2 5 -11 -9 -32 14 -126 47 -190 28 -58 116 -170 133 -171 4 -1
52 25 105 56 128 77 347 265 449 386 26 30 32 47 32 84 0 57 4 53 29 -22z
m1628 14 c106 -13 190 -26 185 -30 -8 -9 -315 -85 -380 -95 -38 -6 -45 -4 -60
17 -32 45 3 143 48 133 8 -1 102 -13 207 -25z m-918 -515 c77 -72 131 -173
142 -264 4 -36 13 -92 19 -125 6 -33 10 -92 7 -131 l-4 -71 112 -12 c61 -6
117 -11 123 -11 22 0 12 -16 -17 -27 -36 -13 -46 -52 -33 -130 l9 -53 -41 6
c-23 3 -69 12 -104 20 -82 18 -79 19 -85 -18 -3 -18 -13 -58 -22 -88 -9 -30
-23 -93 -31 -139 -7 -46 -14 -85 -16 -86 -18 -15 -71 -34 -80 -29 -6 4 -8 3
-5 -3 4 -6 -12 -20 -36 -32 l-42 -21 -19 27 c-11 16 -56 64 -102 108 -81 79
-84 81 -163 99 -131 29 -207 8 -278 -78 -7 -8 -13 -26 -13 -40 0 -32 -20 -45
-21 -14 0 22 -1 22 -8 3 -8 -19 -9 -18 -13 5 -4 21 -6 19 -12 -15 -12 -61 -12
-62 -51 -75 -42 -14 -51 -10 -36 17 5 11 11 45 13 76 4 72 18 75 19 5 l1 -53
19 55 c14 44 18 84 18 198 -1 128 -8 167 -26 148 -4 -3 -8 -66 -11 -139 -5
-164 -22 -194 -22 -40 0 85 -3 112 -14 116 -18 7 -26 -31 -27 -142 l-2 -86
-12 100 c-7 55 -13 90 -14 77 0 -13 -5 -21 -10 -18 -11 7 -20 -73 -23 -189 -1
-49 -3 -72 -5 -50 -10 125 -14 145 -28 132 -8 -8 -16 -51 -20 -108 -3 -51 -8
-95 -9 -97 -2 -1 -6 28 -9 64 -10 109 -26 103 -34 -13 -7 -100 -22 -129 -24
-48 -1 33 -1 69 0 80 1 14 -2 16 -9 9 -6 -6 -13 -49 -16 -95 -6 -95 -9 -109
-24 -109 -5 0 -10 21 -10 47 0 59 -9 52 -11 -10 -2 -42 -5 -47 -25 -47 -31 0
-39 -17 -19 -40 9 -10 17 -24 19 -32 1 -7 6 -20 11 -28 5 -10 1 -9 -13 3 -13
12 -28 16 -41 12 -14 -4 -32 3 -58 22 -51 38 -72 60 -65 67 3 3 -2 6 -11 6 -9
0 -17 -4 -17 -10 0 -5 -9 -10 -20 -10 -31 0 -24 17 10 23 31 7 55 1 78 -17 31
-26 39 -32 58 -43 19 -10 20 -9 16 13 -3 16 -11 24 -24 24 -12 0 -18 5 -14 13
23 57 28 88 19 139 -12 72 0 195 25 244 11 21 31 78 46 125 14 47 34 93 44
102 11 10 25 36 31 60 29 97 151 276 151 220 0 -13 3 -14 12 -5 17 17 28 15
28 -4 0 -15 2 -15 25 0 34 23 36 21 29 -26 l-6 -43 23 43 c25 47 57 62 37 17
-8 -18 -8 -29 -1 -36 10 -10 18 4 37 64 3 9 10 17 17 17 6 0 8 -7 5 -17 -4 -9
-10 -38 -13 -63 -6 -41 -5 -44 10 -32 9 8 20 11 25 8 6 -3 15 1 22 9 7 8 18
15 25 15 22 0 25 -27 5 -50 -19 -22 -33 -74 -49 -185 l-9 -60 -1 70 c-1 60 -3
67 -15 55 -24 -25 -47 -370 -24 -370 4 0 17 33 28 73 11 39 27 88 35 107 7 19
26 87 40 150 60 254 125 379 267 516 76 73 199 174 212 174 3 0 16 11 30 25
14 14 32 25 40 25 9 0 42 -25 75 -56z m-7074 -127 c4 -23 16 -62 27 -86 l21
-44 -33 -66 c-19 -39 -34 -86 -36 -114 -6 -82 -62 -143 -106 -116 -8 5 -21 0
-35 -13 -24 -23 -29 -19 -14 10 12 25 32 82 42 122 27 111 89 315 97 318 4 1
7 17 5 35 -4 30 -3 31 11 14 8 -11 18 -38 21 -60z m7555 -54 c3 -3 -3 -9 -13
-14 -48 -27 -70 -56 -77 -105 -5 -28 -13 -69 -20 -93 l-11 -43 -52 7 c-29 4
-56 11 -61 15 -5 5 5 43 23 89 18 44 31 88 28 98 -3 12 -5 9 -6 -9 -1 -40 -21
-35 -21 5 0 31 3 34 53 49 47 15 141 15 157 1z m-1960 -129 c-6 -14 -10 -32
-10 -40 0 -20 30 -17 32 4 0 9 2 22 2 29 3 29 16 23 16 -8 0 -19 -6 -41 -12
-47 -7 -7 -18 -32 -25 -55 l-12 -42 6 48 c3 30 1 47 -6 47 -5 0 -13 -23 -17
-50 -7 -54 -24 -79 -24 -36 0 14 -4 26 -8 26 -5 0 -9 -6 -9 -12 0 -7 -3 -47
-6 -88 -5 -57 -4 -67 4 -42 15 50 22 38 14 -25 -12 -107 -43 -269 -45 -233 -4
113 2 345 11 405 12 80 29 132 39 115 4 -7 13 -3 25 10 25 28 36 25 25 -6z
m-3425 -594 c11 -5 14 -9 7 -9 -8 -1 -32 -17 -55 -37 -23 -20 -66 -46 -96 -58
-30 -12 -58 -28 -62 -36 -4 -8 -12 -49 -17 -90 l-10 -75 29 -26 c32 -28 36
-41 16 -58 -8 -6 -12 -23 -9 -41 5 -36 -12 -60 -43 -60 -28 0 -43 17 -51 58
-6 28 -4 32 15 32 l22 0 -19 28 c-11 15 -28 51 -37 80 -16 48 -16 56 -1 119
10 38 18 77 20 88 2 20 60 42 114 44 12 1 41 10 65 20 73 33 80 35 112 21z
m4545 -103 c43 -14 96 -51 110 -78 8 -15 7 -23 -5 -35 -8 -8 -15 -12 -15 -8 0
3 -7 1 -15 -6 -11 -9 -15 -10 -15 -1 0 8 -6 7 -16 -4 -20 -20 -53 -11 -77 21
-10 13 -25 24 -32 24 -14 0 -28 39 -29 83 -1 25 1 27 29 21 17 -3 46 -11 65
-17z m-5042 -320 c-21 -6 -38 -14 -38 -19 0 -4 3 -7 8 -6 4 1 23 -1 42 -5 32
-7 34 -9 17 -22 -19 -13 -7 -32 13 -20 6 3 10 2 10 -4 0 -12 -68 -26 -78 -17
-3 4 -1 11 7 15 10 6 9 10 -4 15 -26 10 -42 7 -25 -5 11 -8 8 -9 -15 -5 -27 6
-28 5 -12 -7 9 -8 17 -17 17 -21 0 -8 -77 -7 -125 3 l-40 9 48 1 c29 1 46 5
42 11 -3 6 1 10 9 10 23 0 20 18 -4 25 -13 4 -31 0 -47 -10 -14 -9 -22 -12
-18 -5 8 13 9 13 -110 -11 -51 -10 -56 -13 -35 -20 36 -10 -2 -10 -55 0 -52
10 -48 11 195 59 201 39 272 50 198 29z"/>
<path d="M3868 4963 c0 -21 -2 -61 -3 -89 -1 -28 -10 -63 -20 -77 -37 -56 -28
-217 11 -217 8 0 14 -6 14 -13 0 -7 14 -35 31 -61 26 -42 29 -55 24 -95 -17
-134 -16 -148 19 -215 l33 -64 -32 -5 c-44 -7 -177 -87 -171 -103 3 -7 -1 -35
-9 -63 -16 -61 -11 -66 11 -11 9 23 18 39 21 36 2 -2 -7 -30 -20 -62 -24 -59
-46 -151 -29 -126 13 19 7 -106 -7 -157 -18 -64 -22 -46 -6 29 17 76 18 90 6
72 -6 -10 -10 -8 -14 10 -6 23 -5 42 7 91 4 13 0 9 -9 -8 -8 -16 -14 -37 -15
-46 0 -8 -7 -37 -16 -63 -9 -26 -14 -49 -11 -52 3 -3 12 16 21 43 10 31 13 35
8 13 -3 -19 -7 -49 -7 -67 0 -17 -3 -29 -7 -26 -5 2 -8 -2 -9 -9 -1 -7 -5 -2
-9 12 -7 23 -8 23 -10 -10 -2 -34 -2 -33 -14 15 -7 30 -14 45 -19 38 -4 -7 -5
-24 -1 -39 4 -16 2 -29 -5 -33 -7 -4 -15 -40 -18 -79 -3 -40 -9 -72 -12 -72
-9 0 0 144 10 156 5 6 7 19 3 28 -11 29 52 288 65 267 5 -7 18 14 32 50 13 33
28 60 33 60 4 -1 19 20 33 46 14 26 31 55 38 63 15 19 27 50 18 50 -11 0 -68
-64 -93 -104 -13 -22 -25 -35 -27 -29 -6 17 40 85 81 121 20 17 36 36 36 42 0
5 4 10 10 10 5 0 18 19 29 41 l20 41 -32 -6 c-17 -4 -35 -13 -40 -21 -4 -8
-16 -15 -25 -15 -14 0 -14 -2 -3 -9 11 -7 9 -10 -7 -16 -12 -3 -21 -9 -20 -13
3 -15 -15 -42 -27 -42 -7 0 -20 -11 -29 -25 -19 -28 -106 -120 -106 -111 0 4
8 19 17 34 14 23 14 25 1 12 -16 -15 -58 -85 -58 -97 0 -3 7 0 15 7 9 8 6 -9
-11 -52 -36 -90 -38 -96 -20 -74 20 25 20 14 0 -25 -8 -17 -14 -35 -12 -41 2
-6 17 15 33 46 30 60 52 85 35 41 -17 -44 -11 -42 15 4 14 23 25 53 25 65 1
29 45 77 64 70 19 -7 19 -4 1 -45 l-16 -34 5 30 c5 27 3 26 -14 -10 -10 -22
-19 -45 -19 -52 -1 -6 -10 -18 -20 -25 -11 -8 -26 -38 -34 -68 -9 -30 -16 -46
-16 -35 -2 20 -2 20 -13 1 -6 -11 -19 -49 -29 -85 -18 -70 -25 -56 -8 18 11
51 4 69 -9 20 l-9 -34 -7 33 c-4 17 -4 47 0 65 4 17 8 46 9 62 1 17 6 41 10
54 l8 24 -37 -28 c-20 -15 -39 -26 -42 -23 -6 7 68 64 79 60 4 -1 7 8 7 21 -1
19 -2 20 -13 7 -20 -25 -87 -72 -87 -61 0 5 15 22 34 36 19 14 37 33 40 41 3
9 -13 -1 -36 -20 -23 -20 -44 -33 -47 -30 -3 3 12 21 34 40 22 18 36 34 31 34
-6 0 -23 -12 -39 -27 -20 -19 -31 -24 -34 -15 -11 30 -20 8 -11 -25 9 -35 8
-39 -22 -66 -39 -35 -53 -27 -19 10 17 20 18 23 3 10 -11 -9 -23 -17 -25 -17
-8 0 -4 44 5 58 7 11 4 12 -12 3 -19 -10 -20 -13 -6 -63 15 -58 11 -88 -13
-88 -13 0 -13 3 -3 15 7 9 10 18 6 22 -3 3 -6 1 -6 -5 0 -7 -7 -12 -16 -12 -8
0 -12 5 -9 10 3 6 -1 10 -10 10 -9 0 -13 -5 -9 -11 3 -6 -9 -27 -27 -47 l-34
-37 37 34 c21 19 41 31 45 27 5 -4 -1 -14 -11 -22 -11 -8 -15 -14 -9 -14 7 0
15 5 18 10 3 6 15 10 25 10 10 0 23 8 29 17 12 21 24 13 15 -11 -3 -9 -13 -16
-22 -16 -8 0 -34 -16 -57 -35 -41 -33 -43 -34 -62 -16 -11 11 -37 28 -57 38
l-37 19 40 46 c23 25 41 50 41 55 0 5 7 18 15 29 15 18 15 18 10 -6 -4 -15 0
-33 10 -45 17 -22 17 -22 0 58 -4 19 4 31 35 56 22 18 40 36 40 41 0 6 9 19
20 30 11 11 20 30 20 43 0 16 3 19 9 8 7 -11 14 -10 37 7 16 11 40 32 53 46
24 26 24 26 5 40 -17 13 -20 12 -26 -2 -6 -14 -7 -14 -7 3 -1 15 -3 17 -10 6
-5 -7 -6 -23 -3 -35 3 -11 1 -18 -3 -14 -5 4 -14 3 -22 -3 -10 -9 -13 -7 -14
7 -4 41 -5 50 -13 91 -4 24 -12 45 -17 49 -12 7 -12 -12 0 -34 14 -26 22 -122
11 -122 -6 0 -10 6 -10 14 0 8 -4 17 -9 20 -4 3 -6 -6 -3 -19 3 -18 0 -25 -12
-25 -9 0 -16 -4 -16 -9 0 -5 -13 -12 -29 -16 -16 -3 -54 -24 -85 -45 -63 -44
-80 -40 -36 9 17 18 30 34 30 36 0 2 11 15 25 29 14 14 25 30 25 36 0 18 -101
-92 -121 -132 -11 -21 -24 -38 -29 -38 -6 0 -9 -3 -8 -7 3 -15 -22 -63 -32
-63 -5 0 -10 5 -10 11 0 5 -4 8 -10 4 -5 -3 -7 -12 -3 -21 13 -36 108 41 98
80 -5 16 -4 18 4 6 8 -12 13 -11 34 8 25 24 147 86 154 78 2 -2 -4 -24 -16
-48 l-20 -43 6 35 c3 27 2 31 -6 20 -6 -8 -11 -24 -11 -36 0 -25 -34 -59 -50
-49 -9 6 -39 -49 -44 -82 -3 -22 -17 -28 -26 -13 -8 12 -10 12 -10 2 0 -8 -10
-28 -22 -45 l-22 -32 28 25 c24 21 26 22 20 5 -4 -11 -11 -22 -14 -25 -4 -3
-19 -24 -33 -47 -24 -38 -29 -42 -52 -33 -14 6 -25 6 -25 0 0 -13 49 -49 76
-56 13 -3 27 -18 33 -35 8 -23 24 -36 73 -58 98 -44 158 -122 189 -245 l12
-49 111 7 c61 3 143 6 182 6 l72 0 22 55 c21 52 47 80 129 143 17 13 31 31 31
41 0 19 31 84 53 110 7 9 19 27 25 41 7 14 21 39 32 55 11 17 27 45 36 63 l15
34 24 -49 c21 -41 23 -55 16 -98 -5 -27 -9 -42 -10 -32 0 9 -5 17 -11 17 -10
0 -14 -20 -12 -53 1 -10 -2 -16 -7 -13 -5 4 -12 0 -15 -6 -4 -7 -4 -3 -2 8 2
12 0 28 -5 35 -6 10 -9 4 -9 -18 0 -17 -3 -38 -6 -46 -4 -12 0 -14 15 -10 12
3 21 9 21 13 0 4 11 11 25 14 14 4 23 11 20 16 -3 5 -1 11 5 15 5 3 10 15 10
26 0 12 4 17 11 14 6 -4 13 2 15 12 4 15 12 19 29 15 19 -3 28 -16 41 -54 9
-27 29 -65 46 -83 30 -35 47 -85 28 -85 -6 0 -9 4 -5 9 3 5 1 12 -4 15 -5 3
-11 -1 -15 -9 -3 -8 -12 -15 -20 -15 -20 0 -115 -98 -122 -126 -3 -13 -10 -24
-14 -24 -4 0 -8 -12 -8 -27 0 -16 -1 -44 -2 -63 -1 -19 -11 -57 -21 -83 -23
-56 -19 -89 4 -37 16 34 16 34 17 8 0 -15 -4 -29 -10 -33 -12 -7 -33 -81 -61
-207 -11 -54 -24 -98 -29 -98 -5 0 -12 -26 -16 -57 -10 -83 -22 -110 -24 -53
-2 62 -5 47 -25 -120 -10 -80 -22 -149 -28 -155 -6 -6 -7 2 -4 25 11 62 20
180 14 180 -2 0 -10 -45 -17 -100 -12 -94 -28 -133 -31 -72 -2 23 -2 24 -6 5
-2 -13 -11 -23 -19 -23 -8 0 -12 5 -9 10 3 5 0 10 -8 10 -15 0 -12 46 4 56 5
3 8 20 8 37 l-1 32 -8 -30 c-6 -25 -8 -21 -9 25 -1 41 -4 51 -12 40 -7 -11 -9
9 -5 67 3 50 1 83 -5 85 -7 2 -7 13 0 31 6 16 11 38 11 50 -1 27 -45 -53 -65
-117 -7 -22 -16 -49 -20 -59 -6 -13 -3 -16 9 -11 9 3 16 14 16 24 0 11 5 22
10 25 13 8 13 8 -5 -68 -17 -74 -44 -142 -52 -133 -3 3 4 28 16 55 11 27 21
58 21 68 -1 10 -9 -6 -20 -36 -11 -29 -25 -59 -31 -67 -15 -18 0 -31 91 -78
63 -33 101 -43 244 -66 38 -6 90 -22 116 -35 l48 -24 13 65 c12 60 14 63 26
42 12 -23 12 -23 13 7 1 27 18 81 19 62 1 -5 -6 -58 -15 -118 -12 -79 -13
-113 -5 -122 8 -10 7 -17 -1 -25 -9 -9 -2 -12 29 -12 33 0 42 4 48 23 9 27 6
51 -6 55 -5 2 -9 8 -9 14 0 6 6 8 14 5 11 -5 16 10 21 71 10 121 26 177 20 72
-3 -47 -8 -111 -11 -142 -5 -41 -3 -58 5 -58 6 0 11 17 11 43 0 67 22 199 32
185 4 -8 8 4 8 29 0 25 -6 48 -16 58 -15 14 -15 20 -1 63 8 26 25 94 36 151
12 57 28 115 35 130 7 14 23 60 36 101 31 105 156 356 202 407 47 53 105 142
114 177 9 37 19 40 34 8 11 -22 14 -24 18 -9 2 10 -2 24 -8 32 -15 19 -11 19
32 1 18 -8 53 -37 76 -65 26 -30 51 -51 63 -51 11 0 17 -4 14 -10 -3 -5 -1
-10 4 -10 6 0 10 -3 10 -7 -3 -20 2 -43 10 -43 4 0 15 34 23 75 8 41 12 75 8
75 -4 0 -11 -16 -14 -35 -4 -19 -11 -37 -16 -40 -15 -9 0 57 19 85 10 14 21
36 24 50 3 14 22 50 42 80 19 30 38 63 41 73 3 10 11 16 17 14 7 -2 20 14 30
36 31 70 30 32 -2 -65 -44 -137 -44 -138 -16 -79 14 30 33 80 41 110 9 31 25
71 36 88 11 18 33 61 51 95 17 35 34 64 38 66 4 2 5 10 2 18 -3 8 0 14 5 14 6
0 12 6 15 13 2 6 1 1 -2 -13 -9 -37 -3 -138 8 -158 8 -13 10 -9 6 18 -5 32 -4
33 6 13 21 -41 28 -24 7 18 -25 52 -17 61 12 15 29 -48 35 -46 10 4 -24 47
-24 51 -5 44 11 -5 13 -2 9 10 -3 9 -2 16 4 16 5 0 13 -7 16 -16 4 -9 9 -14
12 -12 9 10 -55 105 -82 123 -16 10 -24 24 -23 38 4 29 -9 67 -34 97 l-20 25
7 -40 c17 -95 17 -133 3 -162 -21 -39 -77 -89 -174 -157 -74 -51 -103 -76 -89
-76 6 0 167 108 190 128 11 10 16 11 12 4 -9 -15 -185 -152 -194 -151 -4 0
-25 28 -47 62 -25 38 -46 61 -55 58 -46 -11 -54 -11 -30 1 14 7 27 16 30 20 3
4 23 15 45 24 21 9 65 34 98 56 68 46 88 46 25 -1 -24 -18 -52 -39 -63 -47
l-20 -16 20 7 c11 4 30 9 43 10 29 4 81 40 146 100 75 70 65 47 -13 -28 -38
-37 -65 -67 -59 -67 5 0 34 23 64 51 30 29 54 49 54 45 0 -21 -71 -90 -145
-141 -88 -60 -114 -84 -47 -44 61 38 135 94 172 133 31 33 35 43 35 93 1 54 1
55 -14 32 -33 -51 -181 -173 -181 -150 0 6 9 15 20 21 31 17 134 110 147 133
7 12 13 42 13 67 0 57 10 72 49 74 19 1 29 6 27 12 -3 7 4 21 15 32 10 12 19
25 19 31 0 5 4 11 9 13 12 4 101 145 101 161 0 6 7 21 15 31 8 11 15 30 15 42
0 13 4 25 9 29 6 3 10 13 11 23 0 9 3 44 6 77 4 33 1 83 -6 112 l-11 53 -514
0 c-481 0 -514 -1 -518 -17 -4 -17 -5 -17 -6 0 -1 16 -25 17 -366 17 l-365 0
-2 -37z m832 -658 c16 -10 8 -119 -12 -142 -7 -9 -24 -39 -38 -67 l-25 -51
-54 3 c-33 2 -51 0 -47 -6 3 -5 -6 -13 -20 -16 -20 -5 -25 -12 -21 -26 3 -11
1 -18 -4 -14 -5 3 -9 11 -9 17 0 7 -12 13 -27 12 -24 0 -28 4 -26 25 7 79 7
80 35 80 17 0 35 10 50 28 13 15 46 38 75 51 34 16 50 28 46 37 -3 8 1 14 8
14 7 0 9 3 6 7 -4 3 -2 12 4 19 6 8 9 20 6 28 -6 15 29 16 53 1z m-650 -158
c-14 -12 -20 -18 -13 -13 18 12 22 6 27 -35 3 -23 -1 -37 -13 -46 -15 -12 -15
-13 2 -7 20 7 23 -6 5 -25 -11 -10 -10 -12 1 -9 14 3 19 -11 27 -84 3 -29 1
-48 -5 -48 -6 0 -8 8 -4 18 3 9 3 14 -1 10 -4 -3 -9 -12 -10 -20 -5 -28 -19
-64 -36 -88 -9 -14 -30 -45 -46 -70 -16 -25 -32 -47 -35 -50 -4 -3 -14 -21
-22 -40 -19 -44 -20 -25 -3 73 13 74 30 112 46 102 10 -6 28 30 45 90 l15 50
-6 -45 c-3 -25 -8 -53 -10 -62 -3 -10 -1 -18 4 -18 5 0 13 15 16 34 4 19 13
39 21 46 8 7 15 19 15 28 0 13 -46 102 -53 102 -2 0 -22 -18 -46 -40 -46 -43
-61 -49 -61 -25 0 8 8 15 18 15 10 0 27 7 38 16 19 16 17 16 -33 0 -14 -5 -23
-3 -23 3 0 6 6 11 14 11 8 0 17 4 20 9 3 4 -5 6 -18 4 -17 -4 -25 1 -29 16 -6
25 10 47 43 56 25 7 25 7 5 -13 -11 -10 -23 -18 -27 -15 -5 2 -8 -3 -8 -11 0
-20 24 -21 40 -1 18 21 29 19 23 -5 -4 -15 0 -20 16 -20 26 0 26 1 1 44 l-19
35 42 26 c52 31 70 32 37 2z m760 -348 c0 -17 7 -37 15 -45 8 -9 15 -26 15
-39 0 -41 -133 -229 -214 -302 -40 -36 -46 -47 -45 -80 l1 -38 14 44 c12 40
62 107 71 97 3 -2 -6 -21 -19 -43 -52 -85 -175 -372 -192 -448 -4 -16 -16 -52
-26 -80 -11 -27 -27 -85 -36 -128 -9 -43 -19 -75 -22 -72 -6 6 -7 8 -21 85 -7
38 -8 30 -8 -47 1 -53 -3 -97 -9 -103 -8 -8 -11 22 -12 102 -1 62 -4 131 -7
153 -5 30 -3 36 4 25 8 -11 10 -8 5 15 -3 17 1 68 9 115 8 47 13 118 12 158
-2 42 0 70 6 67 5 -4 9 0 9 9 0 8 -6 16 -12 18 -10 4 -10 10 -1 29 10 21 12
22 13 4 0 -15 4 -13 16 12 9 18 20 31 24 28 4 -3 13 2 20 10 24 29 41 18 35
-22 l-5 -38 16 32 c17 32 17 33 -21 90 -20 32 -47 68 -58 80 -11 13 -17 26
-14 30 4 4 92 61 195 128 122 79 194 132 207 153 25 40 35 40 35 1z"/>
<path d="M3865 4522 c4 -7 8 -28 9 -47 3 -27 0 -33 -14 -32 -10 1 -16 7 -13
14 4 11 0 11 -20 2 -15 -7 -24 -16 -21 -21 3 -5 -2 -15 -11 -22 -13 -9 -16
-22 -13 -45 4 -24 1 -31 -9 -26 -10 3 -13 -1 -8 -15 5 -15 0 -21 -19 -26 -13
-3 -27 -13 -30 -21 -5 -13 1 -15 38 -11 25 3 52 13 61 22 9 9 22 16 29 16 14
0 56 33 56 44 0 4 -5 4 -10 1 -6 -4 -5 5 2 19 14 32 3 46 -17 20 -13 -17 -14
-17 -15 -1 0 9 5 17 10 17 6 0 10 7 10 16 0 9 5 12 13 8 10 -6 10 -4 0 7 -18
18 -16 30 3 22 13 -5 14 -3 6 13 -12 22 -47 65 -37 46z"/>
<path d="M5779 4140 c-1 -5 -2 -16 -3 -22 -1 -9 -14 -12 -36 -10 l-35 3 25
-20 25 -21 -37 0 c-21 0 -38 -4 -38 -10 0 -5 12 -10 26 -10 14 0 23 -4 20 -8
-13 -21 64 -67 95 -57 19 6 20 12 15 53 -5 34 -4 43 3 32 19 -27 13 19 -6 51
-17 28 -52 40 -54 19z"/>
<path d="M5488 3818 c-8 -13 -21 -41 -28 -63 -14 -45 -29 -67 -31 -44 -3 32
-21 -93 -25 -181 -6 -109 -14 -133 -14 -40 0 83 -12 69 -20 -23 l-7 -72 -2 60
c-2 97 -21 44 -21 -60 0 -50 -4 -104 -9 -122 -7 -25 -5 -40 11 -72 11 -22 26
-45 34 -52 8 -6 14 -18 14 -25 0 -8 5 -14 10 -14 6 0 10 -7 10 -15 0 -9 9 -15
24 -15 18 0 23 4 20 18 -3 9 -9 46 -14 82 l-9 65 4 -78 c3 -50 1 -76 -5 -72
-6 3 -10 13 -10 21 0 8 -4 14 -10 14 -5 0 -10 5 -10 11 0 5 5 7 10 4 6 -4 10
9 10 32 0 27 -3 34 -9 23 -6 -8 -8 -17 -6 -20 2 -4 -3 -7 -11 -7 -10 0 -13 6
-8 16 4 9 9 33 12 55 3 27 7 34 13 25 6 -10 9 -5 9 16 0 23 3 27 10 15 7 -12
10 -8 10 14 0 32 14 26 23 -9 3 -11 6 9 7 45 2 56 4 60 10 30 l7 -35 9 35 8
35 7 -30 c7 -30 7 -29 8 7 1 41 20 63 23 26 0 -13 4 0 7 27 l7 50 11 -35 11
-35 1 43 c1 23 6 42 11 42 12 0 12 -19 3 -86 -5 -36 -8 -43 -14 -29 -7 21 -7
22 -25 -32 -4 -14 -7 -15 -13 -4 -6 9 -10 2 -15 -21 -8 -43 -11 -206 -4 -213
3 -3 9 45 14 107 l9 113 4 -105 4 -105 13 110 12 110 -1 -93 c-1 -50 1 -92 4
-92 8 0 19 90 19 158 0 28 5 52 10 52 7 0 8 -31 4 -87 -4 -49 -4 -85 0 -82 4
4 14 98 22 210 25 332 27 376 18 392 -6 10 -10 -18 -11 -76 -1 -51 -6 -105
-12 -122 l-9 -30 -2 30 -2 30 -10 -35 c-16 -52 -21 -21 -9 59 6 46 6 83 0 106
-13 45 -22 45 -13 0 8 -45 -1 -72 -20 -56 -11 9 -12 6 -8 -14 6 -34 -2 -31
-27 8 -11 17 -21 27 -21 20 0 -6 5 -15 10 -18 11 -7 14 -58 3 -68 -3 -4 -13
-1 -21 6 -13 10 -15 9 -9 -5 9 -25 -3 -55 -14 -36 -6 8 -9 -2 -9 -29 0 -24 5
-43 10 -43 6 0 10 12 10 28 0 21 2 24 10 12 8 -12 10 -9 10 13 0 30 16 37 23
10 3 -12 5 -8 6 9 0 15 6 30 13 34 6 4 8 3 4 -4 -3 -6 -2 -13 4 -17 6 -4 10 6
10 24 0 17 5 31 10 31 11 0 3 -89 -11 -125 -7 -18 -8 -18 -9 5 -1 17 -6 9 -15
-25 -12 -49 -13 -49 -15 -15 -2 34 -3 33 -14 -15 -11 -46 -13 -48 -21 -25 -8
23 -8 23 -12 -12 -3 -25 -9 -38 -19 -38 -8 0 -14 -9 -14 -20 0 -11 -5 -20 -11
-20 -7 0 -9 10 -5 26 5 17 3 23 -4 19 -5 -3 -10 -1 -10 4 0 6 5 11 10 11 6 0
10 7 10 15 0 8 4 15 9 15 19 0 21 37 5 104 l-16 71 34 93 c20 50 34 92 33 92
-2 0 -9 -10 -17 -22z"/>
<path d="M2342 3748 c-25 -16 -30 -23 -20 -29 9 -6 7 -9 -9 -9 -12 0 -25 -4
-28 -10 -3 -5 1 -10 10 -10 9 0 13 -4 10 -10 -3 -5 -15 -10 -26 -10 -10 0 -19
-5 -19 -12 0 -6 -7 -20 -17 -30 -9 -10 -14 -21 -11 -24 4 -3 14 8 24 25 10 17
22 31 26 31 16 0 -11 -47 -81 -144 -15 -22 -26 -46 -24 -55 2 -9 -12 -31 -31
-50 -20 -19 -36 -44 -35 -55 0 -20 1 -20 11 2 6 12 15 22 20 22 12 0 10 -6
-12 -50 -30 -59 -24 -62 8 -5 32 58 71 114 123 176 28 34 113 184 147 262 7
14 -33 5 -66 -15z"/>
<path d="M2990 3743 c-1 -24 -28 -55 -71 -82 -20 -11 -39 -30 -42 -40 -3 -11
-37 -35 -85 -59 -45 -22 -95 -54 -112 -72 -33 -34 -41 -53 -10 -25 11 10 23
15 27 12 3 -4 12 1 19 11 12 16 13 16 14 -4 0 -11 -15 -38 -33 -60 -19 -21
-39 -50 -46 -62 -7 -13 -15 -21 -18 -18 -4 3 -16 -18 -28 -47 -12 -29 -27 -51
-34 -49 -7 1 -11 -1 -8 -5 2 -5 -6 -26 -19 -48 -28 -48 -63 -121 -75 -155 -16
-46 2 90 23 169 22 85 64 185 84 202 18 15 17 10 -1 -35 -21 -50 -10 -45 25
11 34 54 39 78 13 69 -10 -3 -4 6 12 20 22 19 24 23 8 15 -20 -10 -23 -9 -23
6 -1 23 -23 52 -57 75 -33 21 -43 23 -43 5 0 -15 -61 -11 -71 5 -8 12 -120
-33 -129 -52 -42 -87 -102 -383 -84 -412 3 -5 -4 -54 -16 -108 -19 -82 -26
-99 -44 -104 -38 -10 -56 -6 -56 12 0 14 -2 15 -10 2 -8 -13 -10 -13 -10 2 0
9 -5 20 -12 24 -8 5 -9 0 -6 -14 4 -12 2 -24 -2 -27 -5 -3 -11 12 -13 32 l-4
38 -1 -37 c-4 -93 -30 -5 -32 107 0 26 -2 28 -11 12 -6 -10 -14 -40 -19 -65
-7 -43 -8 -44 -9 -12 0 19 11 89 24 155 29 141 29 146 10 139 -12 -5 -13 3 -8
48 3 29 13 69 23 89 20 44 16 59 -18 59 -32 0 -23 10 20 20 l33 8 -36 1 c-44
1 -48 -7 -43 -79 2 -33 -1 -59 -9 -69 -9 -12 -9 -13 1 -7 21 13 14 -26 -10
-52 l-23 -25 23 12 c31 16 28 -2 -5 -34 -15 -14 -23 -25 -17 -25 5 0 15 5 22
12 9 9 12 9 12 -1 0 -7 -9 -15 -20 -18 -11 -3 -20 -10 -20 -17 0 -14 -46 -63
-103 -110 -41 -34 -139 -67 -154 -52 -4 3 1 6 11 6 20 0 112 45 121 60 9 14
-6 12 -24 -4 -18 -15 -76 -36 -100 -36 -9 0 9 14 39 31 81 44 93 62 15 23 -37
-19 -74 -34 -83 -34 -12 0 -46 -21 -91 -57 -2 -2 -2 -6 2 -9 3 -3 21 6 40 20
19 14 40 26 48 26 8 0 -5 -12 -28 -26 -24 -14 -43 -31 -43 -38 0 -7 14 -25 32
-41 26 -23 34 -26 49 -16 27 16 36 14 13 -3 -19 -15 -19 -15 1 -29 11 -9 24
-13 30 -10 5 4 6 2 2 -2 -4 -5 22 -38 57 -74 36 -37 89 -99 119 -139 l54 -74
157 1 c108 1 156 -1 151 -9 -3 -6 4 -10 17 -11 13 -1 -2 -7 -32 -14 -81 -19
-26 -18 71 1 87 17 341 25 355 11 4 -4 -1 -14 -12 -21 -10 -8 -21 -11 -24 -8
-15 21 -145 10 -338 -28 -113 -22 -215 -40 -227 -40 -25 0 -75 -22 -75 -33 0
-5 4 -6 8 -3 11 7 345 53 507 71 83 9 149 22 179 35 l49 20 56 -21 c43 -16 84
-22 171 -25 63 -2 132 -6 153 -9 32 -5 240 11 416 31 l53 6 -38 25 c-22 15
-40 27 -42 29 -2 1 4 15 13 31 l17 28 -19 -24 c-11 -13 -25 -21 -30 -18 -10 6
127 283 185 377 26 41 28 60 7 60 -22 0 -18 21 5 27 43 11 17 22 -47 21 -62
-2 -139 10 -187 28 -17 6 -18 4 -13 -22 3 -16 -3 -66 -14 -111 -19 -84 -75
-217 -88 -209 -3 3 -20 -20 -35 -50 -21 -39 -32 -51 -37 -42 -7 10 -9 9 -9 -5
0 -10 -7 -20 -15 -23 -19 -8 -21 -103 -2 -124 10 -12 9 -12 -5 -1 -10 7 -18
26 -18 41 0 36 -28 86 -57 101 -13 7 -23 16 -23 21 0 5 -12 19 -26 32 -26 22
-26 23 -10 54 9 17 16 35 16 39 -1 4 -9 -7 -18 -25 l-18 -33 -54 84 c-66 104
-123 147 -199 148 -35 1 -61 -5 -86 -20 -45 -26 -47 -26 -35 4 6 15 6 26 0 30
-6 4 -13 -7 -16 -24 -4 -17 -10 -31 -15 -31 -4 0 -4 13 1 28 4 16 10 58 13 93
5 50 4 55 -3 24 -23 -111 -41 -155 -62 -155 -18 0 -20 5 -15 40 7 51 1 51 -13
1 -7 -26 -17 -41 -31 -44 -20 -5 -21 -3 -15 36 4 30 3 38 -4 27 -5 -8 -10 -25
-10 -38 0 -22 -20 -37 -39 -30 -9 3 6 44 29 78 5 8 16 31 24 50 l15 35 -4 -40
c-3 -22 -2 -33 1 -25 20 50 78 161 87 167 5 3 25 38 43 77 18 39 34 67 34 61
2 -12 0 -97 -4 -160 -1 -26 1 -40 5 -33 4 8 11 64 15 125 6 106 8 113 35 139
27 26 43 22 18 -3 -9 -9 -6 -10 10 -6 12 3 29 19 37 35 18 34 86 98 198 186
26 20 27 22 7 22 -11 0 -21 -4 -21 -10 0 -5 -7 -10 -15 -10 -8 0 -15 -6 -15
-13 0 -7 -9 -18 -20 -25 -27 -16 -25 -11 10 45 30 47 38 87 20 98 -5 3 -10 -2
-10 -12z m-580 -259 c0 -3 -16 -37 -35 -77 -20 -39 -30 -65 -23 -57 8 8 22 20
33 26 11 6 30 28 42 50 13 21 23 33 23 25 0 -17 -35 -75 -64 -105 -23 -24 -74
-112 -93 -161 -17 -43 -16 -10 2 113 22 148 40 186 89 188 14 1 26 0 26 -2z"/>
<path d="M9718 3713 c-9 -10 -35 -38 -59 -63 -41 -43 -43 -47 -40 -100 1 -30
9 -77 16 -105 8 -27 15 -69 17 -91 l2 -42 59 -6 c33 -3 83 -6 111 -6 29 0 56
-4 62 -9 5 -5 25 -10 44 -12 73 -4 70 -9 70 100 0 90 -2 99 -20 104 -26 7 -26
43 1 57 30 17 22 55 -12 55 -18 1 -25 -3 -22 -12 3 -8 -3 -13 -16 -13 -13 0
-23 8 -27 24 -8 33 -120 136 -148 136 -12 0 -30 -8 -38 -17z"/>
<path d="M256 2871 c-2 -3 -32 -5 -65 -5 -48 1 -61 -2 -61 -14 0 -11 -7 -13
-31 -8 -17 3 -37 6 -43 7 -6 0 -2 4 9 9 15 7 10 9 -22 9 -24 1 -43 -3 -43 -9
0 -5 9 -10 20 -10 11 0 20 -4 20 -10 0 -5 -9 -10 -20 -10 -20 0 -20 -7 -20
-422 l1 -423 24 40 c14 22 25 46 25 54 0 8 15 46 33 85 63 134 97 234 97 284
0 10 11 51 25 92 15 41 30 105 34 142 6 43 20 89 40 127 17 33 31 62 31 64 0
7 -50 5 -54 -2z"/>
<path d="M1031 2021 c-41 -5 -46 -9 -54 -41 -10 -34 -10 -34 -17 -10 -4 14 -5
-20 -4 -75 3 -120 2 -114 15 -92 5 9 8 21 4 26 -3 5 -1 12 5 16 9 6 14 -19 11
-57 -1 -9 3 -19 9 -23 5 -3 10 1 10 9 0 9 5 16 10 16 6 0 10 -12 10 -26 0 -17
4 -23 12 -18 7 5 19 9 28 10 8 1 23 5 33 9 11 5 17 3 18 -6 0 -8 5 -3 12 11
10 23 11 22 17 -25 4 -36 8 -45 14 -32 5 9 6 34 3 55 -3 27 2 48 20 81 17 29
26 61 27 94 l1 51 -42 10 c-23 6 -45 14 -49 19 -8 8 -24 7 -93 -2z"/>
<path d="M5936 828 c3 -18 7 -38 9 -45 4 -13 -71 -60 -96 -60 -8 0 -29 -9 -45
-20 -51 -35 -87 -57 -154 -91 -36 -19 -71 -39 -79 -45 -19 -16 -37 -20 -118
-22 -40 -1 -78 -7 -85 -12 -7 -6 -56 -13 -108 -16 -294 -18 -557 -36 -635 -44
-27 -2 -61 -4 -75 -4 -14 0 -46 -7 -73 -15 -44 -15 -47 -18 -53 -55 -9 -53
-41 -99 -89 -126 -27 -16 -34 -23 -21 -23 50 0 990 233 1012 251 8 6 17 9 21
6 3 -4 12 -2 18 3 9 7 21 7 40 0 50 -19 209 -50 256 -50 26 0 80 -6 121 -14
40 -8 124 -17 186 -21 101 -7 112 -6 112 9 0 13 -5 16 -20 11 -24 -8 -27 10
-3 19 12 5 13 10 5 18 -8 8 -15 8 -25 0 -8 -7 -17 -9 -20 -5 -13 12 -7 23 13
23 25 0 25 5 0 72 -10 29 -35 106 -55 171 -36 116 -50 146 -39 85z"/>
<path d="M4095 428 c-11 -7 -45 -12 -76 -14 -89 -3 -97 -8 -101 -62 -3 -41 2
-53 35 -95 20 -27 37 -55 37 -63 0 -9 4 -13 10 -9 5 3 26 -1 46 -10 20 -8 45
-15 55 -15 16 0 15 3 -6 25 -14 13 -25 36 -25 51 0 31 44 94 66 94 7 0 14 5
14 10 0 6 5 10 10 10 17 0 57 43 63 68 7 30 -2 27 -38 -9 -16 -17 -37 -35 -46
-40 -14 -7 -17 -3 -17 27 0 43 -2 45 -27 32z"/>
<path d="M9980 390 c-8 -5 -24 -11 -35 -15 -14 -4 -16 -8 -7 -14 9 -5 6 -10
-10 -18 -62 -28 -109 -47 -173 -70 l-69 -25 -28 33 c-15 18 -28 37 -28 41 0 4
-5 8 -10 8 -6 0 -2 -17 9 -37 l19 -37 -52 -37 c-28 -20 -74 -50 -102 -65 -28
-16 -93 -57 -143 -92 l-93 -62 371 0 371 0 0 200 c0 110 -1 200 -2 199 -2 0
-10 -4 -18 -9z"/>
<path d="M4615 229 c22 -6 58 -16 80 -22 l40 -11 -50 -12 c-27 -7 -65 -13 -82
-13 -39 -1 -44 -18 -8 -27 24 -6 44 -4 93 11 32 10 27 -9 -5 -23 -26 -11 -26
-11 -3 -7 13 2 43 0 65 -6 33 -8 59 -6 131 10 49 11 125 28 169 38 l80 17
-115 8 c-63 4 -169 15 -235 23 -66 9 -138 18 -160 20 l-40 5 40 -11z"/>
</g>
</svg>
